<svg width="376" height="63" viewBox="0 0 376 63" fill="none" xmlns="http://www.w3.org/2000/svg">
<path d="M7.05188 38.0639C7.28536 38.0435 7.41368 38.1656 7.43683 38.4302C7.445 38.5236 7.41358 38.6126 7.34256 38.6972C6.14944 40.1191 4.69678 40.905 2.98457 41.0548C2.57987 41.0902 2.10872 40.904 1.57113 40.4962C1.03218 40.0728 0.724574 39.4252 0.648313 38.5536C0.572051 37.6819 1.01685 36.6705 1.9827 35.5195C2.94719 34.3529 4.32962 33.2124 6.12998 32.0981C7.94454 30.9669 10.2356 29.9038 13.0032 28.9088C15.7707 27.9138 18.283 27.3176 20.54 27.1201C22.797 26.9227 24.6657 26.9474 26.1459 27.1943C27.6249 27.4257 28.7929 27.7784 29.6499 28.2523C30.5212 28.7094 31.2507 29.2494 31.8385 29.8724C32.8238 30.9155 33.3675 32.0208 33.4696 33.1882C33.5704 34.3401 33.301 35.5635 32.6615 36.8586C32.0219 38.1536 31.1451 39.3361 30.0309 40.406C28.931 41.459 27.6467 42.4654 26.1779 43.4252C23.4317 45.2025 20.4478 46.5929 17.2261 47.5963C17.8368 48.1232 19.1465 49.4673 21.155 51.6286C23.1777 53.7729 25.0043 55.558 26.6348 56.9838C28.2808 58.4083 29.5163 59.0844 30.3413 59.0123L31.0873 58.6647C31.2585 58.6497 31.3502 58.7123 31.3625 58.8523C31.3734 58.9769 31.1188 59.3834 30.5987 60.072C30.0928 60.7436 29.644 61.2613 29.2523 61.6249C28.8607 61.9886 28.299 62.2024 27.5675 62.2664C26.8514 62.329 26.0036 62.0503 25.024 61.4302C24.0443 60.8101 22.9539 59.9095 21.7526 58.7285C20.5513 57.5474 19.4659 56.4347 18.4961 55.3902C17.5251 54.3302 16.4124 53.0865 15.1583 51.6591C13.9027 50.2162 13.041 49.2407 12.573 48.7327C12.4392 48.9954 12.0967 49.6527 11.5457 50.7047C10.9933 51.7412 10.5897 52.5058 10.3348 52.9987C10.0799 53.4915 9.71175 54.2139 9.23037 55.1657C8.74764 56.102 8.37445 56.8561 8.1108 57.4281C7.38134 58.9506 6.87671 60.0849 6.59691 60.8308C6.33268 61.5754 5.81921 61.9811 5.0565 62.0478L4.23726 62.096L3.53886 62.1806C2.57379 62.2651 2.05585 61.9026 1.98504 61.0932C1.93193 60.4861 2.11318 59.5997 2.52879 58.4341C2.95861 57.2515 5.36091 52.7986 9.73569 45.0754C14.1091 37.3367 16.5315 33.2036 17.003 32.6761C17.4731 32.1331 17.8299 31.8195 18.0735 31.7355C18.248 31.5791 18.3664 31.4981 18.4287 31.4927L18.8551 31.5259L19.2459 31.4212C19.386 31.4089 19.516 31.4603 19.6358 31.5753C19.7543 31.6747 19.8383 31.7379 19.8877 31.765C20.5836 32.1903 20.9459 32.5664 20.9745 32.8933C21.0031 33.2202 20.9454 33.5468 20.8014 33.8731C20.6717 34.1824 20.2873 34.8983 19.6483 36.0208C19.0093 37.1433 18.1648 38.6052 17.1147 40.4067C16.0788 42.1913 15.3296 43.4881 14.8671 44.2971C16.138 44.1232 17.6372 43.5999 19.3645 42.7273C21.0919 41.8547 22.6903 40.8522 24.1597 39.7198C25.6433 38.5705 26.8866 37.3638 27.8897 36.0997C28.9069 34.8187 29.3774 33.7423 29.3011 32.8706C29.2603 32.4037 28.9822 32.0045 28.467 31.6731C27.9504 31.3262 27.3168 31.0758 26.5662 30.9219C25.0649 30.6141 23.3959 30.5405 21.5591 30.7012C19.7224 30.8619 17.4301 31.4624 14.6822 32.5027C11.9343 33.5431 9.94633 34.4855 8.71839 35.3301C7.4891 36.1592 6.60896 36.8557 6.07797 37.4198C5.54562 37.9683 5.2883 38.3437 5.306 38.546C5.31554 38.655 5.47596 38.6959 5.78727 38.6686C6.11415 38.64 6.3953 38.537 6.63073 38.3596C6.8648 38.1666 7.00518 38.068 7.05188 38.0639ZM45.2359 41.2873C45.3258 42.3146 44.9845 43.2542 44.2121 44.106C43.4552 44.9565 42.5475 45.428 41.4891 45.5206C41.1466 45.5505 40.9141 45.4925 40.7915 45.3463C40.6676 45.1846 40.5941 44.9715 40.5709 44.7069C40.5478 44.4423 40.5564 44.1827 40.5969 43.9282C40.0529 44.164 39.4554 44.5065 38.8046 44.9555C38.1538 45.4046 37.3636 46.054 36.4341 46.9039C35.5047 47.7538 35.0563 48.3655 35.089 48.7391C35.0999 48.8636 35.2843 48.9102 35.6423 48.8789C36.0159 48.8462 36.5731 48.672 37.3141 48.3562C38.0536 48.0248 38.5713 47.8462 38.867 47.8204C39.1783 47.7931 39.3821 47.791 39.4782 47.8139C39.6901 47.9052 39.9291 48.1274 40.1952 48.4805C40.46 48.8181 40.602 49.0959 40.621 49.3138C40.6388 49.5161 40.4602 49.8062 40.0855 50.1841C39.7107 50.5619 39.2747 50.8667 38.7774 51.0985C38.2787 51.3146 37.9478 51.4769 37.7848 51.5853C34.6612 53.7093 33.1293 55.1138 33.1892 55.7987C33.2954 57.0128 34.3837 57.5293 36.4539 57.3482C37.7769 57.2324 39.071 56.6957 40.3361 55.7381C41.4098 54.9226 42.366 54.1096 43.2048 53.2991C44.0578 52.4716 44.5935 51.962 44.812 51.7704C45.0461 51.5774 45.2254 51.4754 45.3499 51.4645C45.7546 51.4291 45.9965 51.8628 46.0755 52.7656C46.1544 53.6684 46.1524 54.2724 46.0693 54.5777C45.9849 54.8674 45.7042 55.2449 45.2273 55.7101C42.1332 58.7099 39.0997 60.3399 36.1267 60.6C34.539 60.7389 33.2513 60.632 32.2637 60.2792C30.4509 59.6379 29.473 58.5001 29.33 56.8657C29.1421 54.7176 30.4863 52.961 33.3626 51.5957C32.748 51.3828 32.3373 51.0816 32.1307 50.6918C31.9227 50.2865 31.7792 49.6325 31.7003 48.7297C31.6199 47.8113 31.9557 46.8095 32.7078 45.7242C33.474 44.622 34.4433 43.6902 35.6158 42.9289C38.226 41.2105 40.6051 40.2573 42.7531 40.0694C43.2668 40.0244 43.7991 40.1033 44.3502 40.3061C44.9012 40.5088 45.1964 40.8359 45.2359 41.2873ZM72.1401 21.2647C72.4358 21.2388 72.6775 21.3118 72.8651 21.4836C73.0526 21.6554 73.1553 21.8425 73.173 22.0448C73.1893 22.2316 73.065 22.6032 72.8 23.1597C72.5492 23.6992 71.9559 24.8961 71.0202 26.7503C70.0831 28.589 69.3546 30.033 68.8347 31.0823C65.8039 37.1351 63.4581 42.234 61.7974 46.3789C60.1367 50.5237 59.3424 53.0087 59.4146 53.8337L59.431 54.0204C59.4868 54.6586 59.7482 54.9573 60.2152 54.9164C60.6821 54.8756 61.2234 54.6086 61.839 54.1156C62.4702 53.6212 63.0131 53.1032 63.4676 52.5615C63.9221 52.0198 64.3753 51.4626 64.8271 50.8898C65.2931 50.3 65.5765 49.9537 65.6773 49.8508C65.778 49.7479 65.9141 49.6889 66.0853 49.6739C66.3499 49.6508 66.5361 49.807 66.6439 50.1427C66.7503 50.4627 66.8301 50.9263 66.8832 51.5333C66.9349 52.1248 66.9223 52.5181 66.8452 52.713C66.4701 53.6242 65.5672 54.7776 64.1365 56.1732C62.72 57.5519 61.3269 58.3012 59.9571 58.421C57.6223 58.6253 56.3684 57.739 56.1955 55.7622C56.0879 54.5325 56.4139 52.8806 57.1735 50.8065C56.0557 52.5512 54.8934 54.0567 53.6867 55.3229C51.4437 57.6523 49.4271 58.8953 47.6371 59.0519C46.6409 59.139 45.8709 58.8535 45.3271 58.1952C44.7988 57.5356 44.4775 56.5521 44.3631 55.2446C44.2474 53.9215 44.6228 52.2967 45.4894 50.3701C46.3561 48.4435 47.4881 46.6818 48.8855 45.0852C50.2971 43.4717 51.894 42.0929 53.676 40.9488C55.4568 39.7892 57.1332 39.1406 58.7053 39.0031C59.2034 38.9595 59.8137 39.212 60.5361 39.7605C60.9248 39.005 61.6323 37.5001 62.6585 35.2458C65.9096 28.4836 68.0881 24.3405 69.1938 22.8164C69.7727 21.9031 70.7548 21.3859 72.1401 21.2647ZM59.3038 42.0798C57.106 42.774 55.1114 43.9994 53.3202 45.7559C51.529 47.5125 50.2271 49.3047 49.4146 51.1324C48.6007 52.9446 48.2162 54.1076 48.2611 54.6212C48.3061 55.1349 48.4375 55.3822 48.6554 55.3631C49.5894 55.2814 51.7184 52.9934 55.0424 48.4991C56.6994 46.2838 58.1199 44.144 59.3038 42.0798ZM80.1183 38.2355C80.2082 39.2628 79.8669 40.2024 79.0945 41.0542C78.3376 41.9046 77.4299 42.3762 76.3714 42.4688C76.029 42.4987 75.7965 42.4406 75.6739 42.2945C75.55 42.1328 75.4764 41.9197 75.4533 41.6551C75.4301 41.3905 75.4388 41.1309 75.4793 40.8764C74.9352 41.1122 74.3378 41.4547 73.687 41.9037C73.0361 42.3528 72.246 43.0022 71.3165 43.8521C70.3871 44.702 69.9387 45.3137 69.9714 45.6873C69.9822 45.8118 70.1667 45.8584 70.5247 45.8271C70.8983 45.7944 71.4555 45.6201 72.1964 45.3044C72.936 44.973 73.4537 44.7944 73.7494 44.7685C74.0607 44.7413 74.2644 44.7392 74.3605 44.7621C74.5724 44.8534 74.8115 45.0756 75.0776 45.4287C75.3424 45.7663 75.4844 46.0441 75.5034 46.262C75.5211 46.4643 75.3426 46.7544 74.9679 47.1323C74.5931 47.5101 74.1571 47.8149 73.6598 48.0466C73.1611 48.2628 72.8302 48.4251 72.6672 48.5334C69.5435 50.6575 68.0117 52.062 68.0716 52.7469C68.1778 53.961 69.266 54.4775 71.3363 54.2964C72.6593 54.1806 73.9534 53.6439 75.2185 52.6863C76.2921 51.8708 77.2484 51.0578 78.0872 50.2473C78.9402 49.4198 79.4759 48.9102 79.6944 48.7186C79.9285 48.5255 80.1078 48.4236 80.2323 48.4127C80.637 48.3773 80.8789 48.811 80.9578 49.7138C81.0368 50.6166 81.0348 51.2206 80.9517 51.5259C80.8672 51.8156 80.5866 52.1931 80.1097 52.6583C77.0156 55.6581 73.9821 57.2881 71.009 57.5482C69.4214 57.6871 68.1337 57.5802 67.1461 57.2274C65.3333 56.5861 64.3554 55.4482 64.2124 53.8139C64.0245 51.6658 65.3687 49.9092 68.245 48.5439C67.6304 48.331 67.2197 48.0297 67.0131 47.64C66.8051 47.2347 66.6616 46.5807 66.5826 45.6779C66.5023 44.7595 66.8381 43.7577 67.5902 42.6724C68.3564 41.5702 69.3257 40.6384 70.4982 39.877C73.1084 38.1586 75.4875 37.2055 77.6355 37.0175C78.1492 36.9726 78.6815 37.0515 79.2325 37.2543C79.7836 37.457 80.0788 37.7841 80.1183 38.2355ZM115.104 39.0566C115.478 39.0239 115.691 39.3111 115.744 39.9181C115.796 40.5096 115.754 41.5485 115.617 43.0348C115.5 44.0332 114.502 45.5321 112.623 47.5317C110.354 49.926 107.789 51.7188 104.929 52.9102C103.204 53.6258 101.493 54.0578 99.7961 54.2062C98.115 54.3533 96.512 53.7799 94.9872 52.486C93.4766 51.1751 92.6362 49.5469 92.4659 47.6012C92.2944 45.6399 92.5065 43.5824 93.1023 41.4285C93.7123 39.2577 94.5957 37.1649 95.7527 35.1502C96.9238 33.1185 98.3352 31.1442 99.9869 29.2273C101.654 27.3091 103.412 25.6182 105.26 24.1547C107.108 22.6912 109.073 21.4841 111.155 20.5334C113.236 19.5828 115.242 19.023 117.172 18.8542C118.697 18.7207 120.045 19.1596 121.216 20.1708C121.828 20.7132 122.174 21.4359 122.253 22.3387C122.33 23.2259 121.993 24.3925 121.241 25.8386C120.488 27.269 119.561 28.5971 118.461 29.8226C117.376 31.0469 116.229 32.1039 115.021 32.9939C113.828 33.8825 112.85 34.3601 112.088 34.4269C111.325 34.4936 110.651 34.3173 110.065 33.898C109.478 33.4631 109.168 33.0589 109.136 32.6853C109.103 32.3118 109.145 31.8925 109.261 31.4274C109.393 30.9611 109.583 30.717 109.832 30.6952C109.777 30.7785 109.752 30.859 109.759 30.9368C109.775 31.1236 110.048 31.1939 110.577 31.1476C111.122 31.0999 111.983 30.5462 113.161 29.4864C114.339 28.4266 115.382 27.2609 116.29 25.9894C117.214 24.7165 117.65 23.7844 117.598 23.1929C117.563 22.7882 117.273 22.6097 116.728 22.6573C115.265 22.7853 113.301 23.6473 110.837 25.2431C108.387 26.822 106.081 28.7883 103.919 31.1419C101.756 33.4956 99.9328 36.2275 98.4482 39.3374C96.9778 42.4305 96.3454 45.1522 96.551 47.5026C96.6368 48.4832 96.9624 49.2468 97.5278 49.7934C98.1088 50.3386 98.9363 50.5642 100.01 50.4702C101.1 50.3749 102.357 49.9512 103.781 49.1992C105.205 48.4472 106.54 47.562 107.784 46.5434C109.043 45.5235 110.223 44.487 111.323 43.434C112.423 42.381 113.292 41.4659 113.93 40.6886C114.583 39.9099 114.911 39.4499 114.915 39.3084C114.916 39.1514 114.98 39.0675 115.104 39.0566ZM130.84 25.5635C130.917 26.4507 130.583 27.3818 129.837 28.3568C129.09 29.3162 128.265 29.8354 127.362 29.9144C126.475 29.992 125.99 29.5639 125.909 28.6299C125.827 27.696 126.138 26.7747 126.843 25.8661C127.562 24.9405 128.396 24.4362 129.346 24.3531C129.766 24.3164 130.111 24.4038 130.38 24.6155C130.65 24.8272 130.803 25.1432 130.84 25.5635ZM128.841 46.2775C128.881 46.7444 128.864 47.0832 128.788 47.2937C128.162 48.917 127.058 50.284 125.477 51.3948C123.894 52.49 122.488 53.0914 121.259 53.199C120.029 53.3066 118.934 52.9867 117.975 52.2393C117.016 51.492 116.499 50.6903 116.424 49.8341C116.349 48.978 116.668 47.6953 117.381 45.9861C118.094 44.2768 118.818 42.692 119.553 41.2318C120.288 39.7716 120.651 38.987 120.641 38.878C120.63 38.7535 120.446 38.5343 120.089 38.2205C119.748 37.9052 119.571 37.6698 119.557 37.5142C119.542 37.3429 119.824 36.887 120.402 36.1463C120.994 35.3886 121.721 34.635 122.58 33.8853C123.454 33.1187 124.133 32.7143 124.615 32.6721C125.113 32.6285 125.576 32.8076 126.003 33.2094C126.431 33.6112 126.66 33.9911 126.691 34.3491C126.723 34.7071 125.165 38.2391 122.019 44.9451C121.98 45.0426 121.866 45.2643 121.677 45.6102C121.502 45.9392 121.362 46.2181 121.256 46.4469C121.165 46.6588 121.054 46.9195 120.925 47.2288C120.668 47.8787 120.558 48.4137 120.594 48.834C120.641 49.3632 121.022 49.5965 121.738 49.5339C122.454 49.4712 123.172 49.1653 123.893 48.616C124.627 48.0498 125.249 47.4465 125.758 46.806C127.083 45.1058 127.847 44.2469 128.05 44.2292C128.454 44.1938 128.718 44.8766 128.841 46.2775ZM153.859 14.1152C154.155 14.0893 154.397 14.1623 154.584 14.3341C154.772 14.5059 154.874 14.693 154.892 14.8953C154.908 15.0821 154.784 15.4537 154.519 16.0102C154.268 16.5497 153.675 17.7466 152.739 19.6009C151.802 21.4395 151.074 22.8835 150.554 23.9328C147.523 29.9856 145.177 35.0845 143.516 39.2294C141.856 43.3743 141.062 45.8592 141.134 46.6842L141.15 46.8709C141.206 47.5091 141.467 47.8078 141.934 47.7669C142.401 47.7261 142.943 47.4591 143.558 46.9661C144.189 46.4717 144.732 45.9537 145.187 45.412C145.641 44.8703 146.094 44.3131 146.546 43.7403C147.012 43.1506 147.296 42.8042 147.396 42.7013C147.497 42.5984 147.633 42.5394 147.804 42.5244C148.069 42.5013 148.255 42.6575 148.363 42.9932C148.469 43.3132 148.549 43.7768 148.602 44.3838C148.654 44.9753 148.641 45.3686 148.564 45.5635C148.189 46.4747 147.286 47.6281 145.856 49.0237C144.439 50.4024 143.046 51.1517 141.676 51.2715C139.341 51.4758 138.088 50.5895 137.915 48.6127C137.807 47.383 138.133 45.7311 138.893 43.657C137.775 45.4017 136.613 46.9072 135.406 48.1734C133.163 50.5028 131.146 51.7458 129.356 51.9024C128.36 51.9895 127.59 51.704 127.046 51.0457C126.518 50.3862 126.197 49.4026 126.082 48.0951C125.966 46.772 126.342 45.1472 127.209 43.2206C128.075 41.294 129.207 39.5323 130.605 37.9357C132.016 36.3222 133.613 34.9434 135.395 33.7993C137.176 32.6397 138.852 31.9911 140.424 31.8536C140.922 31.81 141.533 32.0625 142.255 32.611C142.644 31.8555 143.351 30.3506 144.378 28.0963C147.629 21.3341 149.807 17.191 150.913 15.6669C151.492 14.7536 152.474 14.2364 153.859 14.1152ZM141.023 34.9303C138.825 35.6245 136.831 36.8499 135.039 38.6065C133.248 40.363 131.946 42.1552 131.134 43.9829C130.32 45.7951 129.935 46.9581 129.98 47.4717C130.025 47.9854 130.157 48.2327 130.375 48.2136C131.308 48.1319 133.437 45.8439 136.762 41.3496C138.418 39.1343 139.839 36.9945 141.023 34.9303ZM163.564 30.6526C164.747 30.5491 165.374 30.9021 165.445 31.7115C165.483 32.1473 165.41 32.4752 165.225 32.6953C165.04 32.9154 164.664 33.6306 164.095 34.841C163.541 36.0345 162.937 37.5616 162.284 39.4225C161.646 41.2664 161.265 42.829 161.142 44.1102C161.109 44.27 161.104 44.4899 161.129 44.7701C161.204 45.6262 161.475 46.0338 161.942 45.993C162.409 45.9521 162.942 45.6859 163.542 45.1942C164.141 44.687 164.668 44.1625 165.122 43.6208C165.575 43.0636 166.012 42.4999 166.433 41.9299C166.869 41.3584 167.13 41.0297 167.217 40.9437C167.304 40.8577 167.44 40.8065 167.627 40.7902C167.923 40.7643 168.122 40.9743 168.223 41.4203C168.325 41.8662 168.397 42.3305 168.439 42.813C168.482 43.2956 168.464 43.6343 168.387 43.8293C168.013 44.756 167.11 45.9094 165.678 47.2894C164.262 48.6681 162.923 49.4126 161.662 49.523C160.417 49.6319 159.465 49.3309 158.807 48.6199C158.149 47.909 157.78 47.0943 157.699 46.1759C157.618 45.242 157.702 44.4112 157.952 43.6835C156.807 45.4776 155.445 47.0319 153.866 48.3464C152.303 49.6595 150.992 50.3624 149.933 50.455C148.875 50.5476 147.983 50.3041 147.258 49.7245C146.332 49.0055 145.808 47.9456 145.686 46.5447C145.562 45.1282 145.749 43.6845 146.248 42.2136C146.761 40.7257 147.48 39.3532 148.405 38.0959C149.329 36.823 150.363 35.6502 151.509 34.5776C153.916 32.328 156.209 31.1079 158.388 30.9172C159.228 30.8437 159.925 30.9239 160.479 31.1578C161.033 31.3916 161.398 31.7126 161.575 32.1206C161.9 31.5276 162.18 31.1501 162.417 30.9882C162.668 30.8094 163.05 30.6975 163.564 30.6526ZM160.685 33.5159C158.024 33.7488 155.398 35.4686 152.808 38.6752C151.889 39.8222 151.066 41.1725 150.339 42.7261C149.628 44.2784 149.296 45.3269 149.344 45.8717C149.392 46.4165 149.571 46.6753 149.883 46.6481C150.318 46.6099 151.458 45.6476 153.3 43.7611C155.141 41.859 156.354 40.4747 156.937 39.6081C157.574 38.6426 158.823 36.6119 160.685 33.5159ZM193.038 10.6875C193.333 10.6616 193.575 10.7346 193.763 10.9064C193.95 11.0782 194.053 11.2653 194.071 11.4676C194.087 11.6544 193.963 12.0261 193.698 12.5825C193.447 13.1221 192.853 14.3189 191.918 16.1732C190.981 18.0118 190.252 19.4558 189.732 20.5051C186.701 26.558 184.356 31.6568 182.695 35.8017C181.034 39.9466 180.24 42.4315 180.312 43.2565L180.329 43.4433C180.384 44.0815 180.646 44.3801 181.113 44.3393C181.58 44.2984 182.121 44.0315 182.737 43.5384C183.368 43.044 183.911 42.526 184.365 41.9843C184.82 41.4427 185.273 40.8854 185.725 40.3126C186.191 39.7229 186.474 39.3766 186.575 39.2736C186.676 39.1707 186.812 39.1117 186.983 39.0968C187.247 39.0736 187.434 39.2299 187.541 39.5655C187.648 39.8856 187.728 40.3491 187.781 40.9562C187.832 41.5477 187.82 41.9409 187.743 42.1358C187.368 43.047 186.465 44.2004 185.034 45.596C183.618 46.9747 182.224 47.724 180.855 47.8438C178.52 48.0481 177.266 47.1618 177.093 45.185C176.985 43.9553 177.311 42.3035 178.071 40.2294C176.953 41.974 175.791 43.4795 174.584 44.7457C172.341 47.0751 170.325 48.3181 168.535 48.4747C167.538 48.5618 166.768 48.2763 166.225 47.6181C165.696 46.9585 165.375 45.9749 165.261 44.6674C165.145 43.3444 165.52 41.7195 166.387 39.7929C167.254 37.8663 168.386 36.1047 169.783 34.5081C171.195 32.8945 172.792 31.5157 174.574 30.3717C176.354 29.2121 178.031 28.5635 179.603 28.4259C180.101 28.3824 180.711 28.6348 181.434 29.1833C181.822 28.4278 182.53 26.9229 183.556 24.6687C186.807 17.9064 188.986 13.7633 190.091 12.2393C190.67 11.326 191.652 10.8087 193.038 10.6875ZM180.201 31.5027C178.004 32.1969 176.009 33.4222 174.218 35.1788C172.427 36.9353 171.125 38.7275 170.312 40.5553C169.498 42.3675 169.114 43.5304 169.159 44.0441C169.204 44.5577 169.335 44.805 169.553 44.786C170.487 44.7043 172.616 42.4162 175.94 37.9219C177.597 35.7066 179.017 33.5668 180.201 31.5027ZM202.742 27.2249C203.925 27.1214 204.552 27.4744 204.623 28.2838C204.661 28.7196 204.588 29.0476 204.403 29.2676C204.219 29.4877 203.842 30.2029 203.274 31.4133C202.719 32.6068 202.116 34.134 201.463 35.9948C200.824 37.8387 200.443 39.4013 200.32 40.6826C200.287 40.8423 200.283 41.0623 200.307 41.3424C200.382 42.1985 200.653 42.6062 201.12 42.5653C201.587 42.5245 202.121 42.2582 202.721 41.7665C203.319 41.2593 203.846 40.7348 204.301 40.1932C204.754 39.6359 205.191 39.0723 205.611 38.5022C206.048 37.9307 206.309 37.602 206.396 37.516C206.482 37.43 206.619 37.3788 206.806 37.3625C207.101 37.3366 207.3 37.5467 207.402 37.9926C207.504 38.4386 207.576 38.9028 207.618 39.3854C207.66 39.8679 207.643 40.2066 207.566 40.4016C207.192 41.3283 206.289 42.4817 204.857 43.8618C203.44 45.2405 202.102 45.985 200.841 46.0953C199.596 46.2042 198.644 45.9032 197.986 45.1923C197.327 44.4813 196.958 43.6666 196.878 42.7483C196.796 41.8143 196.88 40.9835 197.13 40.2558C195.985 42.0499 194.624 43.6042 193.045 44.9187C191.481 46.2319 190.17 46.9347 189.112 47.0273C188.053 47.1199 187.162 46.8764 186.436 46.2968C185.511 45.5778 184.987 44.5179 184.864 43.117C184.74 41.7006 184.928 40.2569 185.426 38.7859C185.939 37.2981 186.658 35.9255 187.584 34.6682C188.507 33.3953 189.542 32.2226 190.687 31.1499C193.094 28.9003 195.387 27.6802 197.566 27.4896C198.407 27.416 199.104 27.4962 199.658 27.7301C200.211 27.964 200.577 28.2849 200.753 28.6929C201.078 28.0999 201.359 27.7224 201.596 27.5605C201.846 27.3817 202.229 27.2699 202.742 27.2249ZM199.864 30.0883C197.202 30.3211 194.576 32.0409 191.987 35.2476C191.068 36.3945 190.245 37.7448 189.518 39.2985C188.807 40.8507 188.475 41.8993 188.523 42.4441C188.57 42.9888 188.75 43.2476 189.061 43.2204C189.497 43.1823 190.636 42.2199 192.479 40.3334C194.32 38.4313 195.532 37.047 196.115 36.1804C196.752 35.2149 198.002 33.1842 199.864 30.0883ZM200.323 18.661C200.632 18.9634 200.978 19.2468 201.362 19.5112C201.744 19.7601 202.2 19.8614 202.729 19.8151C203.274 19.7674 203.793 19.5966 204.284 19.3026C204.792 19.0072 205.142 18.7021 205.334 18.3873C205.888 17.5546 206.344 17.1225 206.702 17.0912C207.06 17.0599 207.35 17.2306 207.571 17.6034C207.79 17.9607 207.917 18.3339 207.951 18.723C207.985 19.1121 207.958 19.436 207.871 19.6946C207.433 20.7838 206.736 21.6839 205.778 22.3951C204.821 23.1062 203.868 23.5033 202.918 23.5864C201.969 23.6695 201.185 23.589 200.568 23.345C199.966 23.0996 199.495 22.8194 199.153 22.5042C198.216 21.6451 197.513 21.236 197.046 21.2769C196.595 21.3164 196.191 21.4536 195.835 21.6887C195.478 21.9081 195.172 22.178 194.918 22.4983C194.678 22.8016 194.438 23.1049 194.198 23.4083C193.618 24.1334 193.048 24.5205 192.488 24.5695C192.363 24.5804 192.238 24.4972 192.113 24.32C191.988 24.1427 191.913 23.9218 191.89 23.6572C191.809 22.7233 192.11 21.7715 192.793 20.802C193.477 19.8325 194.248 19.0592 195.108 18.4821C195.967 17.905 196.692 17.5906 197.284 17.5388C197.891 17.4857 198.472 17.5839 199.027 17.8333C199.581 18.0672 200.013 18.3431 200.323 18.661ZM227.32 18.793C227.553 18.7725 227.682 18.8946 227.705 19.1592C227.713 19.2526 227.682 19.3417 227.611 19.4263C226.417 20.8482 224.965 21.634 223.253 21.7838C222.848 21.8192 222.377 21.633 221.839 21.2252C221.3 20.8018 220.993 20.1543 220.916 19.2826C220.84 18.411 221.285 17.3996 222.251 16.2485C223.215 15.0819 224.598 13.9415 226.398 12.8272C228.213 11.696 230.504 10.6329 233.271 9.63788C236.039 8.64288 238.551 8.04665 240.808 7.84919C243.065 7.65173 244.934 7.67646 246.414 7.92338C247.893 8.15474 249.061 8.50741 249.918 8.98139C250.789 9.43844 251.519 9.97848 252.107 10.6015C253.092 11.6446 253.636 12.7498 253.738 13.9173C253.838 15.0691 253.569 16.2926 252.929 17.5876C252.29 18.8827 251.413 20.0651 250.299 21.1351C249.199 22.1881 247.915 23.1944 246.446 24.1542C243.7 25.9316 240.716 27.322 237.494 28.3253C238.105 28.8522 239.414 30.1963 241.423 32.3576C243.446 34.502 245.272 36.2871 246.903 37.7129C248.549 39.1373 249.784 39.8135 250.609 39.7413L251.355 39.3937C251.526 39.3787 251.618 39.4413 251.63 39.5814C251.641 39.7059 251.387 40.1125 250.867 40.801C250.361 41.4727 249.912 41.9903 249.52 42.354C249.129 42.7176 248.567 42.9314 247.835 42.9955C247.119 43.0581 246.272 42.7794 245.292 42.1593C244.312 41.5392 243.222 40.6386 242.021 39.4575C240.819 38.2765 239.734 37.1637 238.764 36.1193C237.793 35.0593 236.68 33.8156 235.426 32.3882C234.171 30.9452 233.309 29.9698 232.841 29.4617C232.707 29.7244 232.365 30.3818 231.814 31.4338C231.261 32.4702 230.858 33.2349 230.603 33.7277C230.348 34.2206 229.98 34.9429 229.498 35.8947C229.016 36.831 228.642 37.5851 228.379 38.1572C227.649 39.6797 227.145 40.8139 226.865 41.5599C226.601 42.3045 226.087 42.7102 225.324 42.7769L224.505 42.825L223.807 42.9097C222.842 42.9941 222.324 42.6316 222.253 41.8222C222.2 41.2151 222.381 40.3288 222.797 39.1631C223.227 37.9805 225.629 33.5277 230.004 25.8045C234.377 18.0657 236.8 13.9326 237.271 13.4052C237.741 12.8621 238.098 12.5486 238.342 12.4645C238.516 12.3081 238.634 12.2272 238.697 12.2217L239.123 12.255L239.514 12.1502C239.654 12.138 239.784 12.1893 239.904 12.3043C240.022 12.4038 240.106 12.467 240.156 12.494C240.852 12.9194 241.214 13.2955 241.243 13.6224C241.271 13.9492 241.213 14.2758 241.069 14.6021C240.94 14.9115 240.555 15.6274 239.916 16.7498C239.277 17.8723 238.433 19.3343 237.383 21.1358C236.347 22.9204 235.598 24.2172 235.135 25.0262C236.406 24.8522 237.905 24.329 239.633 23.4563C241.36 22.5837 242.958 21.5812 244.428 20.4488C245.911 19.2995 247.155 18.0928 248.158 16.8287C249.175 15.5477 249.645 14.4714 249.569 13.5997C249.528 13.1327 249.25 12.7336 248.735 12.4022C248.218 12.0553 247.585 11.8049 246.834 11.6509C245.333 11.3431 243.664 11.2696 241.827 11.4302C239.99 11.5909 237.698 12.1915 234.95 13.2318C232.202 14.2721 230.214 15.2146 228.986 16.0592C227.757 16.8882 226.877 17.5848 226.346 18.1488C225.814 18.6973 225.556 19.0727 225.574 19.2751C225.584 19.384 225.744 19.4249 226.055 19.3977C226.382 19.3691 226.663 19.2661 226.899 19.0886C227.133 18.8956 227.273 18.7971 227.32 18.793ZM265.504 22.0163C265.594 23.0437 265.253 23.9832 264.48 24.835C263.723 25.6855 262.816 26.157 261.757 26.2496C261.415 26.2796 261.182 26.2215 261.06 26.0754C260.936 25.9137 260.862 25.7005 260.839 25.4359C260.816 25.1713 260.824 24.9118 260.865 24.6573C260.321 24.8931 259.723 25.2355 259.073 25.6846C258.422 26.1336 257.632 26.7831 256.702 27.633C255.773 28.4828 255.324 29.0945 255.357 29.4681C255.368 29.5926 255.552 29.6392 255.91 29.6079C256.284 29.5752 256.841 29.401 257.582 29.0852C258.322 28.7539 258.839 28.5753 259.135 28.5494C259.446 28.5222 259.65 28.52 259.746 28.543C259.958 28.6342 260.197 28.8564 260.463 29.2096C260.728 29.5472 260.87 29.8249 260.889 30.0428C260.907 30.2452 260.728 30.5353 260.353 30.9131C259.979 31.291 259.543 31.5958 259.045 31.8275C258.547 32.0437 258.216 32.2059 258.053 32.3143C254.929 34.4384 253.397 35.8429 253.457 36.5277C253.563 37.7419 254.652 38.2584 256.722 38.0772C258.045 37.9615 259.339 37.4248 260.604 36.4671C261.678 35.6517 262.634 34.8387 263.473 34.0281C264.326 33.2006 264.862 32.6911 265.08 32.4994C265.314 32.3064 265.493 32.2045 265.618 32.1936C266.023 32.1582 266.264 32.5919 266.343 33.4947C266.422 34.3975 266.42 35.0015 266.337 35.3068C266.253 35.5965 265.972 35.9739 265.495 36.4392C262.401 39.439 259.368 41.069 256.395 41.3291C254.807 41.468 253.519 41.361 252.532 41.0083C250.719 40.367 249.741 39.2291 249.598 37.5947C249.41 35.4467 250.754 33.69 253.631 32.3248C253.016 32.1119 252.605 31.8106 252.399 31.4209C252.191 31.0156 252.047 30.3615 251.968 29.4587C251.888 28.5404 252.224 27.5385 252.976 26.4532C253.742 25.351 254.711 24.4192 255.884 23.6579C258.494 21.9395 260.873 20.9863 263.021 20.7984C263.535 20.7535 264.067 20.8324 264.618 21.0351C265.169 21.2379 265.464 21.5649 265.504 22.0163ZM280.868 33.0474C281.632 32.4629 282.123 32.0671 282.34 31.8599C282.556 31.6371 282.808 31.3798 283.096 31.0879C283.384 30.7961 283.629 30.6413 283.832 30.6236C284.143 30.5964 284.33 30.9407 284.393 31.6568C284.454 32.3572 284.17 33.1506 283.542 34.0368C282.928 34.9061 282.133 35.6737 281.156 36.3395C280.177 36.9898 279.123 37.5761 277.992 38.0985C275.748 39.1575 273.808 39.7585 272.174 39.9015C270.555 40.0431 269.046 39.6419 267.646 38.6978C266.244 37.7382 265.469 36.4023 265.319 34.6901C265.168 32.9623 265.445 31.2049 266.151 29.4177C266.856 27.6151 267.822 26.0092 269.047 24.6002C270.287 23.1742 271.759 21.9789 273.462 21.0142C275.182 20.0482 276.913 19.4889 278.656 19.3364C279.497 19.2629 280.273 19.4381 280.984 19.862C281.696 20.286 282.089 20.9183 282.162 21.7588C282.236 22.5994 281.904 23.6479 281.167 24.9044C280.444 26.144 279.654 26.8012 278.798 26.8761C277.802 26.9633 277.263 26.5321 277.179 25.5826C277.158 25.3336 277.352 24.8695 277.764 24.1905C278.175 23.5114 278.371 23.063 278.352 22.8451C278.331 22.6116 278.235 22.5023 278.064 22.5173C277.208 22.5922 276.316 22.9683 275.387 23.6456C274.458 24.3229 273.617 25.0238 272.865 25.7483C272.128 26.4716 271.437 27.2692 270.792 28.1412C269.39 30.0363 268.771 31.9334 268.937 33.8324C269.004 34.5951 269.303 35.2355 269.835 35.7536C270.381 36.2549 271.229 36.4551 272.381 36.3543C273.549 36.2522 274.705 36.0177 275.849 35.651C276.992 35.2687 277.923 34.8892 278.643 34.5125C279.377 34.1189 280.119 33.6305 280.868 33.0474ZM296.566 11.0643C296.644 11.9515 296.309 12.8826 295.563 13.8576C294.816 14.817 293.991 15.3362 293.088 15.4152C292.201 15.4928 291.717 15.0647 291.635 14.1307C291.553 13.1968 291.865 12.2755 292.569 11.3669C293.288 10.4413 294.123 9.93703 295.072 9.85396C295.492 9.81719 295.837 9.90465 296.107 10.1163C296.376 10.328 296.529 10.644 296.566 11.0643ZM294.567 31.7783C294.608 32.2453 294.59 32.584 294.515 32.7945C293.888 34.4178 292.784 35.7848 291.203 36.8956C289.621 37.9908 288.215 38.5922 286.985 38.6998C285.755 38.8074 284.661 38.4875 283.701 37.7402C282.742 36.9928 282.225 36.1911 282.15 35.335C282.075 34.4789 282.394 33.1962 283.107 31.4869C283.82 29.7776 284.544 28.1929 285.279 26.7326C286.014 25.2724 286.377 24.4878 286.367 24.3788C286.356 24.2543 286.173 24.0351 285.816 23.7213C285.474 23.4061 285.297 23.1706 285.283 23.015C285.268 22.8438 285.55 22.3878 286.128 21.6471C286.721 20.8894 287.447 20.1358 288.307 19.3861C289.181 18.6195 289.859 18.2151 290.342 18.1729C290.84 18.1293 291.302 18.3084 291.73 18.7102C292.157 19.112 292.386 19.4919 292.418 19.8499C292.449 20.2079 290.891 23.7399 287.745 30.4459C287.707 30.5434 287.593 30.7651 287.403 31.111C287.228 31.44 287.088 31.719 286.982 31.9478C286.891 32.1597 286.781 32.4203 286.651 32.7296C286.394 33.3795 286.284 33.9146 286.321 34.3348C286.367 34.8641 286.748 35.0974 287.464 35.0347C288.18 34.9721 288.899 34.6661 289.619 34.1169C290.354 33.5507 290.975 32.9473 291.484 32.3068C292.81 30.6067 293.574 29.7478 293.776 29.7301C294.181 29.6946 294.444 30.3774 294.567 31.7783ZM291.357 29.777L291.113 29.1396C291.102 29.0151 291.155 28.9085 291.273 28.8197C291.389 28.7154 291.529 28.5228 291.693 28.2419C291.872 27.9595 291.997 27.7761 292.068 27.6914C292.155 27.6054 292.27 27.4856 292.413 27.3319C292.571 27.1612 292.7 27.0245 292.801 26.9215C293.089 26.6297 293.294 26.4627 293.416 26.4207C293.536 26.3631 293.748 26.274 294.051 26.1534C294.989 25.7576 295.787 25.4682 296.446 25.2852C299.835 18.307 302.564 12.8452 304.635 8.89971C306.719 4.93733 307.908 2.74727 308.201 2.32954C308.508 1.89487 309.076 1.48444 309.904 1.09822C310.733 0.712014 311.343 0.509669 311.733 0.49119C312.138 0.455783 312.356 0.6093 312.385 0.951742C312.398 1.09183 312.36 1.28338 312.271 1.5264C312.198 1.76805 311.47 3.21982 310.088 5.88171C304.97 15.6932 301.699 22.0493 300.275 24.9501L300.877 25.1092C304.429 24.124 306.276 23.6252 306.416 23.6129C306.572 23.5993 306.955 23.6756 307.565 23.8418C308.19 23.991 308.597 24.073 308.787 24.0878C309.15 24.1188 309.355 24.3988 309.401 24.9281C309.446 25.4417 309.308 25.744 308.987 25.8349C308.726 25.9047 308.101 26.1162 307.113 26.4693C306.138 26.8055 305.354 27.0702 304.759 27.2634C305.67 28.1719 306.174 29.1787 306.27 30.2838C306.367 31.389 306.005 32.8951 305.183 34.802C304.361 36.6934 303.264 38.5931 301.894 40.501C300.524 42.4089 299.067 44.2225 297.523 45.9417C295.996 47.6595 294.503 49.0684 293.047 50.1683C291.592 51.2837 290.498 51.8734 289.767 51.9374C289.019 52.0028 288.34 51.8583 287.729 51.504C287.103 51.1666 286.756 50.6088 286.688 49.8305C286.62 49.0522 286.704 48.1274 286.94 47.0559C287.161 46.0013 287.421 45.0218 287.718 44.1175C288.016 43.2287 288.546 41.9354 289.308 40.2376C290.12 38.4098 291.603 35.2765 293.755 30.8376C293.326 30.9536 292.995 31.0218 292.761 31.0422C292.528 31.0626 292.305 31.0272 292.093 30.936C291.882 30.8447 291.729 30.7169 291.636 30.5525C291.469 30.2534 291.376 29.9949 291.357 29.777ZM298.798 39.2661C299.847 37.8098 300.704 36.3075 301.368 34.7594C302.031 33.1956 302.322 31.9468 302.24 31.0128C302.157 30.0633 301.625 29.2708 300.644 28.6351L298.104 29.4455C297.877 29.9045 297.525 30.6333 297.048 31.6318C296.585 32.6134 296.2 33.4156 295.894 34.0384C295.603 34.6599 295.226 35.4614 294.763 36.443C294.3 37.4246 293.91 38.2508 293.592 38.9217C293.29 39.5912 292.948 40.3426 292.566 41.176C292.201 42.0235 291.903 42.7397 291.672 43.3246C291.426 43.9264 291.196 44.519 290.98 45.1025C290.562 46.2371 290.367 46.9678 290.396 47.2946C290.424 47.6215 290.524 47.7775 290.695 47.7625C291.007 47.7353 291.621 47.3207 292.539 46.5189C293.443 45.734 294.45 44.6892 295.559 43.3844C296.685 42.0939 297.765 40.7211 298.798 39.2661ZM325.089 16.8033C325.179 17.8307 324.837 18.7702 324.065 19.622C323.308 20.4725 322.4 20.944 321.342 21.0366C321 21.0666 320.767 21.0085 320.644 20.8624C320.52 20.7007 320.447 20.4875 320.424 20.2229C320.401 19.9583 320.409 19.6988 320.45 19.4443C319.906 19.6801 319.308 20.0225 318.657 20.4716C318.007 20.9206 317.216 21.5701 316.287 22.42C315.358 23.2698 314.909 23.8815 314.942 24.2551C314.953 24.3796 315.137 24.4262 315.495 24.3949C315.869 24.3622 316.426 24.188 317.167 23.8722C317.907 23.5409 318.424 23.3623 318.72 23.3364C319.031 23.3092 319.235 23.307 319.331 23.33C319.543 23.4212 319.782 23.6434 320.048 23.9966C320.313 24.3342 320.455 24.6119 320.474 24.8298C320.492 25.0322 320.313 25.3223 319.938 25.7001C319.564 26.078 319.128 26.3828 318.63 26.6145C318.132 26.8307 317.801 26.9929 317.638 27.1013C314.514 29.2254 312.982 30.6299 313.042 31.3147C313.148 32.5289 314.237 33.0454 316.307 32.8642C317.63 32.7485 318.924 32.2118 320.189 31.2541C321.263 30.4387 322.219 29.6257 323.058 28.8151C323.911 27.9876 324.446 27.4781 324.665 27.2864C324.899 27.0934 325.078 26.9915 325.203 26.9806C325.608 26.9452 325.849 27.3789 325.928 28.2817C326.007 29.1845 326.005 29.7885 325.922 30.0938C325.838 30.3835 325.557 30.7609 325.08 31.2262C321.986 34.226 318.953 35.856 315.98 36.1161C314.392 36.255 313.104 36.148 312.117 35.7953C310.304 35.1539 309.326 34.0161 309.183 32.3817C308.995 30.2337 310.339 28.477 313.216 27.1118C312.601 26.8989 312.19 26.5976 311.984 26.2079C311.776 25.8026 311.632 25.1485 311.553 24.2457C311.473 23.3274 311.809 22.3255 312.561 21.2402C313.327 20.138 314.296 19.2062 315.469 18.4449C318.079 16.7265 320.458 15.7733 322.606 15.5854C323.12 15.5405 323.652 15.6194 324.203 15.8221C324.754 16.0249 325.049 16.3519 325.089 16.8033ZM358.579 5.63885C358.657 6.52608 358.323 7.45719 357.577 8.43217C356.829 9.39158 356.004 9.91078 355.101 9.98976C354.214 10.0674 353.73 9.63923 353.648 8.7053C353.566 7.77137 353.878 6.85008 354.583 5.94145C355.301 5.0159 356.136 4.51158 357.085 4.42851C357.505 4.39174 357.85 4.47921 358.12 4.6909C358.389 4.9026 358.542 5.21858 358.579 5.63885ZM356.58 26.3528C356.621 26.8198 356.603 27.1586 356.528 27.3691C355.901 28.9924 354.797 30.3594 353.216 31.4702C351.634 32.5654 350.228 33.1668 348.998 33.2744C347.768 33.3819 346.674 33.0621 345.715 32.3147C344.755 31.5674 344.238 30.7656 344.163 29.9095C344.088 29.0534 344.407 27.7707 345.12 26.0614C345.833 24.3522 346.558 22.7674 347.292 21.3072C348.027 19.8469 348.39 19.0623 348.38 18.9534C348.37 18.8289 348.186 18.6097 347.829 18.2958C347.488 17.9806 347.31 17.7452 347.297 17.5895C347.282 17.4183 347.563 16.9624 348.141 16.2216C348.734 15.464 349.46 14.7103 350.32 13.9607C351.194 13.1941 351.872 12.7897 352.355 12.7475C352.853 12.7039 353.315 12.883 353.743 13.2848C354.17 13.6866 354.399 14.0665 354.431 14.4245C354.462 14.7825 352.904 18.3145 349.758 25.0205C349.72 25.1179 349.606 25.3396 349.416 25.6856C349.241 26.0146 349.101 26.2935 348.996 26.5223C348.904 26.7342 348.794 26.9948 348.664 27.3042C348.407 27.9541 348.297 28.4891 348.334 28.9094C348.38 29.4386 348.761 29.6719 349.477 29.6093C350.193 29.5466 350.912 29.2407 351.632 28.6914C352.367 28.1252 352.989 27.5219 353.497 26.8814C354.823 25.1812 355.587 24.3223 355.789 24.3046C356.194 24.2692 356.457 24.9519 356.58 26.3528ZM367.208 27.0934C367.268 27.7783 367.765 28.0799 368.699 27.9982C369.197 27.9546 369.798 27.6511 370.502 27.0876C371.221 26.5228 371.858 25.9181 372.413 25.2735C373.892 23.5286 374.74 22.6466 374.958 22.6275C375.363 22.5921 375.616 23.1581 375.718 24.3256C375.82 25.493 375.525 26.3266 374.831 26.8264C372.781 29.0291 371.168 30.4015 369.992 30.9436C369.328 31.237 368.582 31.412 367.756 31.4686C366.93 31.5252 366.081 31.2387 365.21 30.609C364.34 29.9794 363.861 29.1665 363.774 28.1703C363.685 27.1585 363.85 25.9913 364.267 24.6686C364.685 23.346 365.126 22.2094 365.592 21.2589C366.072 20.2915 366.665 19.1732 367.369 17.9038C368.072 16.6189 368.434 15.8265 368.455 15.5267L368.404 15.4841C367.895 15.5757 366.707 16.6991 364.841 18.8543C362.99 21.0082 361.467 22.8746 360.272 24.4535C359.077 26.0324 357.668 28.1241 356.045 30.7286C355.59 31.4429 355.199 31.8143 354.872 31.8429C354.545 31.8715 354.101 31.8084 353.538 31.6537C352.959 31.4849 352.603 31.3592 352.47 31.2767C352.337 31.1942 352.263 31.0595 352.247 30.8727C352.23 30.6859 352.265 30.4555 352.351 30.1813C352.435 29.8916 352.524 29.6564 352.618 29.4756C352.695 29.2807 352.834 28.9862 353.035 28.5922C353.236 28.1982 353.626 27.372 354.206 26.1135C354.801 24.8381 355.709 22.9392 356.931 20.4168C358.153 17.8945 358.883 16.372 359.12 15.8494C359.621 14.7703 360.038 13.9809 360.371 13.4813C360.994 12.5327 362.138 11.9856 363.804 11.8399C364.177 11.8072 364.384 12.0244 364.425 12.4913C364.489 13.2229 363.933 14.6597 362.755 16.8017L361.904 18.3585C364.335 15.1343 366.442 13.0442 368.225 12.0883C369.094 11.6202 369.886 11.3548 370.602 11.2922C371.334 11.2282 371.927 11.3724 372.381 11.7247C372.851 12.0757 373.107 12.4925 373.149 12.975C373.19 13.442 373.076 14.0245 372.808 14.7224C372.538 15.4047 372.255 16.0255 371.959 16.5847C371.677 17.1269 371.298 17.8188 370.823 18.6603C370.348 19.5018 370.09 19.9635 370.05 20.0455C370.009 20.1118 369.901 20.3095 369.726 20.6385C369.565 20.9506 369.444 21.1808 369.363 21.329C369.282 21.4773 369.148 21.7399 368.961 22.117C368.773 22.4785 368.619 22.7822 368.5 23.0279C368.396 23.2723 368.257 23.5745 368.085 23.9347C367.928 24.2935 367.798 24.6028 367.696 24.8628C367.608 25.1213 367.515 25.404 367.417 25.7106C367.247 26.2745 367.177 26.7354 367.208 27.0934Z" fill="white"/>
<path d="M7.05188 38.0639C7.28536 38.0435 7.41368 38.1656 7.43683 38.4302C7.445 38.5236 7.41358 38.6126 7.34256 38.6972C6.14944 40.1191 4.69678 40.905 2.98457 41.0548C2.57987 41.0902 2.10872 40.904 1.57113 40.4962C1.03218 40.0728 0.724574 39.4252 0.648313 38.5536C0.572051 37.6819 1.01685 36.6705 1.9827 35.5195C2.94719 34.3529 4.32962 33.2124 6.12998 32.0981C7.94454 30.9669 10.2356 29.9038 13.0032 28.9088C15.7707 27.9138 18.283 27.3176 20.54 27.1201C22.797 26.9227 24.6657 26.9474 26.1459 27.1943C27.6249 27.4257 28.7929 27.7784 29.6499 28.2523C30.5212 28.7094 31.2507 29.2494 31.8385 29.8724C32.8238 30.9155 33.3675 32.0208 33.4696 33.1882C33.5704 34.3401 33.301 35.5635 32.6615 36.8586C32.0219 38.1536 31.1451 39.3361 30.0309 40.406C28.931 41.459 27.6467 42.4654 26.1779 43.4252C23.4317 45.2025 20.4478 46.5929 17.2261 47.5963C17.8368 48.1232 19.1465 49.4673 21.155 51.6286C23.1777 53.7729 25.0043 55.558 26.6348 56.9838C28.2808 58.4083 29.5163 59.0844 30.3413 59.0123L31.0873 58.6647C31.2585 58.6497 31.3502 58.7123 31.3625 58.8523C31.3734 58.9769 31.1188 59.3834 30.5987 60.072C30.0928 60.7436 29.644 61.2613 29.2523 61.6249C28.8607 61.9886 28.299 62.2024 27.5675 62.2664C26.8514 62.329 26.0036 62.0503 25.024 61.4302C24.0443 60.8101 22.9539 59.9095 21.7526 58.7285C20.5513 57.5474 19.4659 56.4347 18.4961 55.3902C17.5251 54.3302 16.4124 53.0865 15.1583 51.6591C13.9027 50.2162 13.041 49.2407 12.573 48.7327C12.4392 48.9954 12.0967 49.6527 11.5457 50.7047C10.9933 51.7412 10.5897 52.5058 10.3348 52.9987C10.0799 53.4915 9.71175 54.2139 9.23037 55.1657C8.74764 56.102 8.37445 56.8561 8.1108 57.4281C7.38134 58.9506 6.87671 60.0849 6.59691 60.8308C6.33268 61.5754 5.81921 61.9811 5.0565 62.0478L4.23726 62.096L3.53886 62.1806C2.57379 62.2651 2.05585 61.9026 1.98504 61.0932C1.93193 60.4861 2.11318 59.5997 2.52879 58.4341C2.95861 57.2515 5.36091 52.7986 9.73569 45.0754C14.1091 37.3367 16.5315 33.2036 17.003 32.6761C17.4731 32.1331 17.8299 31.8195 18.0735 31.7355C18.248 31.5791 18.3664 31.4981 18.4287 31.4927L18.8551 31.5259L19.2459 31.4212C19.386 31.4089 19.516 31.4603 19.6358 31.5753C19.7543 31.6747 19.8383 31.7379 19.8877 31.765C20.5836 32.1903 20.9459 32.5664 20.9745 32.8933C21.0031 33.2202 20.9454 33.5468 20.8014 33.8731C20.6717 34.1824 20.2873 34.8983 19.6483 36.0208C19.0093 37.1433 18.1648 38.6052 17.1147 40.4067C16.0788 42.1913 15.3296 43.4881 14.8671 44.2971C16.138 44.1232 17.6372 43.5999 19.3645 42.7273C21.0919 41.8547 22.6903 40.8522 24.1597 39.7198C25.6433 38.5705 26.8866 37.3638 27.8897 36.0997C28.9069 34.8187 29.3774 33.7423 29.3011 32.8706C29.2603 32.4037 28.9822 32.0045 28.467 31.6731C27.9504 31.3262 27.3168 31.0758 26.5662 30.9219C25.0649 30.6141 23.3959 30.5405 21.5591 30.7012C19.7224 30.8619 17.4301 31.4624 14.6822 32.5027C11.9343 33.5431 9.94633 34.4855 8.71839 35.3301C7.4891 36.1592 6.60896 36.8557 6.07797 37.4198C5.54562 37.9683 5.2883 38.3437 5.306 38.546C5.31554 38.655 5.47596 38.6959 5.78727 38.6686C6.11415 38.64 6.3953 38.537 6.63073 38.3596C6.8648 38.1666 7.00518 38.068 7.05188 38.0639ZM45.2359 41.2873C45.3258 42.3146 44.9845 43.2542 44.2121 44.106C43.4552 44.9565 42.5475 45.428 41.4891 45.5206C41.1466 45.5505 40.9141 45.4925 40.7915 45.3463C40.6676 45.1846 40.5941 44.9715 40.5709 44.7069C40.5478 44.4423 40.5564 44.1827 40.5969 43.9282C40.0529 44.164 39.4554 44.5065 38.8046 44.9555C38.1538 45.4046 37.3636 46.054 36.4341 46.9039C35.5047 47.7538 35.0563 48.3655 35.089 48.7391C35.0999 48.8636 35.2843 48.9102 35.6423 48.8789C36.0159 48.8462 36.5731 48.672 37.3141 48.3562C38.0536 48.0248 38.5713 47.8462 38.867 47.8204C39.1783 47.7931 39.3821 47.791 39.4782 47.8139C39.6901 47.9052 39.9291 48.1274 40.1952 48.4805C40.46 48.8181 40.602 49.0959 40.621 49.3138C40.6388 49.5161 40.4602 49.8062 40.0855 50.1841C39.7107 50.5619 39.2747 50.8667 38.7774 51.0985C38.2787 51.3146 37.9478 51.4769 37.7848 51.5853C34.6612 53.7093 33.1293 55.1138 33.1892 55.7987C33.2954 57.0128 34.3837 57.5293 36.4539 57.3482C37.7769 57.2324 39.071 56.6957 40.3361 55.7381C41.4098 54.9226 42.366 54.1096 43.2048 53.2991C44.0578 52.4716 44.5935 51.962 44.812 51.7704C45.0461 51.5774 45.2254 51.4754 45.3499 51.4645C45.7546 51.4291 45.9965 51.8628 46.0755 52.7656C46.1544 53.6684 46.1524 54.2724 46.0693 54.5777C45.9849 54.8674 45.7042 55.2449 45.2273 55.7101C42.1332 58.7099 39.0997 60.3399 36.1267 60.6C34.539 60.7389 33.2513 60.632 32.2637 60.2792C30.4509 59.6379 29.473 58.5001 29.33 56.8657C29.1421 54.7176 30.4863 52.961 33.3626 51.5957C32.748 51.3828 32.3373 51.0816 32.1307 50.6918C31.9227 50.2865 31.7792 49.6325 31.7003 48.7297C31.6199 47.8113 31.9557 46.8095 32.7078 45.7242C33.474 44.622 34.4433 43.6902 35.6158 42.9289C38.226 41.2105 40.6051 40.2573 42.7531 40.0694C43.2668 40.0244 43.7991 40.1033 44.3502 40.3061C44.9012 40.5088 45.1964 40.8359 45.2359 41.2873ZM72.1401 21.2647C72.4358 21.2388 72.6775 21.3118 72.8651 21.4836C73.0526 21.6554 73.1553 21.8425 73.173 22.0448C73.1893 22.2316 73.065 22.6032 72.8 23.1597C72.5492 23.6992 71.9559 24.8961 71.0202 26.7503C70.0831 28.589 69.3546 30.033 68.8347 31.0823C65.8039 37.1351 63.4581 42.234 61.7974 46.3789C60.1367 50.5237 59.3424 53.0087 59.4146 53.8337L59.431 54.0204C59.4868 54.6586 59.7482 54.9573 60.2152 54.9164C60.6821 54.8756 61.2234 54.6086 61.839 54.1156C62.4702 53.6212 63.0131 53.1032 63.4676 52.5615C63.9221 52.0198 64.3753 51.4626 64.8271 50.8898C65.2931 50.3 65.5765 49.9537 65.6773 49.8508C65.778 49.7479 65.9141 49.6889 66.0853 49.6739C66.3499 49.6508 66.5361 49.807 66.6439 50.1427C66.7503 50.4627 66.8301 50.9263 66.8832 51.5333C66.9349 52.1248 66.9223 52.5181 66.8452 52.713C66.4701 53.6242 65.5672 54.7776 64.1365 56.1732C62.72 57.5519 61.3269 58.3012 59.9571 58.421C57.6223 58.6253 56.3684 57.739 56.1955 55.7622C56.0879 54.5325 56.4139 52.8806 57.1735 50.8065C56.0557 52.5512 54.8934 54.0567 53.6867 55.3229C51.4437 57.6523 49.4271 58.8953 47.6371 59.0519C46.6409 59.139 45.8709 58.8535 45.3271 58.1952C44.7988 57.5356 44.4775 56.5521 44.3631 55.2446C44.2474 53.9215 44.6228 52.2967 45.4894 50.3701C46.3561 48.4435 47.4881 46.6818 48.8855 45.0852C50.2971 43.4717 51.894 42.0929 53.676 40.9488C55.4568 39.7892 57.1332 39.1406 58.7053 39.0031C59.2034 38.9595 59.8137 39.212 60.5361 39.7605C60.9248 39.005 61.6323 37.5001 62.6585 35.2458C65.9096 28.4836 68.0881 24.3405 69.1938 22.8164C69.7727 21.9031 70.7548 21.3859 72.1401 21.2647ZM59.3038 42.0798C57.106 42.774 55.1114 43.9994 53.3202 45.7559C51.529 47.5125 50.2271 49.3047 49.4146 51.1324C48.6007 52.9446 48.2162 54.1076 48.2611 54.6212C48.3061 55.1349 48.4375 55.3822 48.6554 55.3631C49.5894 55.2814 51.7184 52.9934 55.0424 48.4991C56.6994 46.2838 58.1199 44.144 59.3038 42.0798ZM80.1183 38.2355C80.2082 39.2628 79.8669 40.2024 79.0945 41.0542C78.3376 41.9046 77.4299 42.3762 76.3714 42.4688C76.029 42.4987 75.7965 42.4406 75.6739 42.2945C75.55 42.1328 75.4764 41.9197 75.4533 41.6551C75.4301 41.3905 75.4388 41.1309 75.4793 40.8764C74.9352 41.1122 74.3378 41.4547 73.687 41.9037C73.0361 42.3528 72.246 43.0022 71.3165 43.8521C70.3871 44.702 69.9387 45.3137 69.9714 45.6873C69.9822 45.8118 70.1667 45.8584 70.5247 45.8271C70.8983 45.7944 71.4555 45.6201 72.1964 45.3044C72.936 44.973 73.4537 44.7944 73.7494 44.7685C74.0607 44.7413 74.2644 44.7392 74.3605 44.7621C74.5724 44.8534 74.8115 45.0756 75.0776 45.4287C75.3424 45.7663 75.4844 46.0441 75.5034 46.262C75.5211 46.4643 75.3426 46.7544 74.9679 47.1323C74.5931 47.5101 74.1571 47.8149 73.6598 48.0466C73.1611 48.2628 72.8302 48.4251 72.6672 48.5334C69.5435 50.6575 68.0117 52.062 68.0716 52.7469C68.1778 53.961 69.266 54.4775 71.3363 54.2964C72.6593 54.1806 73.9534 53.6439 75.2185 52.6863C76.2921 51.8708 77.2484 51.0578 78.0872 50.2473C78.9402 49.4198 79.4759 48.9102 79.6944 48.7186C79.9285 48.5255 80.1078 48.4236 80.2323 48.4127C80.637 48.3773 80.8789 48.811 80.9578 49.7138C81.0368 50.6166 81.0348 51.2206 80.9517 51.5259C80.8672 51.8156 80.5866 52.1931 80.1097 52.6583C77.0156 55.6581 73.9821 57.2881 71.009 57.5482C69.4214 57.6871 68.1337 57.5802 67.1461 57.2274C65.3333 56.5861 64.3554 55.4482 64.2124 53.8139C64.0245 51.6658 65.3687 49.9092 68.245 48.5439C67.6304 48.331 67.2197 48.0297 67.0131 47.64C66.8051 47.2347 66.6616 46.5807 66.5826 45.6779C66.5023 44.7595 66.8381 43.7577 67.5902 42.6724C68.3564 41.5702 69.3257 40.6384 70.4982 39.877C73.1084 38.1586 75.4875 37.2055 77.6355 37.0175C78.1492 36.9726 78.6815 37.0515 79.2325 37.2543C79.7836 37.457 80.0788 37.7841 80.1183 38.2355ZM115.104 39.0566C115.478 39.0239 115.691 39.3111 115.744 39.9181C115.796 40.5096 115.754 41.5485 115.617 43.0348C115.5 44.0332 114.502 45.5321 112.623 47.5317C110.354 49.926 107.789 51.7188 104.929 52.9102C103.204 53.6258 101.493 54.0578 99.7961 54.2062C98.115 54.3533 96.512 53.7799 94.9872 52.486C93.4766 51.1751 92.6362 49.5469 92.4659 47.6012C92.2944 45.6399 92.5065 43.5824 93.1023 41.4285C93.7123 39.2577 94.5957 37.1649 95.7527 35.1502C96.9238 33.1185 98.3352 31.1442 99.9869 29.2273C101.654 27.3091 103.412 25.6182 105.26 24.1547C107.108 22.6912 109.073 21.4841 111.155 20.5334C113.236 19.5828 115.242 19.023 117.172 18.8542C118.697 18.7207 120.045 19.1596 121.216 20.1708C121.828 20.7132 122.174 21.4359 122.253 22.3387C122.33 23.2259 121.993 24.3925 121.241 25.8386C120.488 27.269 119.561 28.5971 118.461 29.8226C117.376 31.0469 116.229 32.1039 115.021 32.9939C113.828 33.8825 112.85 34.3601 112.088 34.4269C111.325 34.4936 110.651 34.3173 110.065 33.898C109.478 33.4631 109.168 33.0589 109.136 32.6853C109.103 32.3118 109.145 31.8925 109.261 31.4274C109.393 30.9611 109.583 30.717 109.832 30.6952C109.777 30.7785 109.752 30.859 109.759 30.9368C109.775 31.1236 110.048 31.1939 110.577 31.1476C111.122 31.0999 111.983 30.5462 113.161 29.4864C114.339 28.4266 115.382 27.2609 116.29 25.9894C117.214 24.7165 117.65 23.7844 117.598 23.1929C117.563 22.7882 117.273 22.6097 116.728 22.6573C115.265 22.7853 113.301 23.6473 110.837 25.2431C108.387 26.822 106.081 28.7883 103.919 31.1419C101.756 33.4956 99.9328 36.2275 98.4482 39.3374C96.9778 42.4305 96.3454 45.1522 96.551 47.5026C96.6368 48.4832 96.9624 49.2468 97.5278 49.7934C98.1088 50.3386 98.9363 50.5642 100.01 50.4702C101.1 50.3749 102.357 49.9512 103.781 49.1992C105.205 48.4472 106.54 47.562 107.784 46.5434C109.043 45.5235 110.223 44.487 111.323 43.434C112.423 42.381 113.292 41.4659 113.93 40.6886C114.583 39.9099 114.911 39.4499 114.915 39.3084C114.916 39.1514 114.98 39.0675 115.104 39.0566ZM130.84 25.5635C130.917 26.4507 130.583 27.3818 129.837 28.3568C129.09 29.3162 128.265 29.8354 127.362 29.9144C126.475 29.992 125.99 29.5639 125.909 28.6299C125.827 27.696 126.138 26.7747 126.843 25.8661C127.562 24.9405 128.396 24.4362 129.346 24.3531C129.766 24.3164 130.111 24.4038 130.38 24.6155C130.65 24.8272 130.803 25.1432 130.84 25.5635ZM128.841 46.2775C128.881 46.7444 128.864 47.0832 128.788 47.2937C128.162 48.917 127.058 50.284 125.477 51.3948C123.894 52.49 122.488 53.0914 121.259 53.199C120.029 53.3066 118.934 52.9867 117.975 52.2393C117.016 51.492 116.499 50.6903 116.424 49.8341C116.349 48.978 116.668 47.6953 117.381 45.9861C118.094 44.2768 118.818 42.692 119.553 41.2318C120.288 39.7716 120.651 38.987 120.641 38.878C120.63 38.7535 120.446 38.5343 120.089 38.2205C119.748 37.9052 119.571 37.6698 119.557 37.5142C119.542 37.3429 119.824 36.887 120.402 36.1463C120.994 35.3886 121.721 34.635 122.58 33.8853C123.454 33.1187 124.133 32.7143 124.615 32.6721C125.113 32.6285 125.576 32.8076 126.003 33.2094C126.431 33.6112 126.66 33.9911 126.691 34.3491C126.723 34.7071 125.165 38.2391 122.019 44.9451C121.98 45.0426 121.866 45.2643 121.677 45.6102C121.502 45.9392 121.362 46.2181 121.256 46.4469C121.165 46.6588 121.054 46.9195 120.925 47.2288C120.668 47.8787 120.558 48.4137 120.594 48.834C120.641 49.3632 121.022 49.5965 121.738 49.5339C122.454 49.4712 123.172 49.1653 123.893 48.616C124.627 48.0498 125.249 47.4465 125.758 46.806C127.083 45.1058 127.847 44.2469 128.05 44.2292C128.454 44.1938 128.718 44.8766 128.841 46.2775ZM153.859 14.1152C154.155 14.0893 154.397 14.1623 154.584 14.3341C154.772 14.5059 154.874 14.693 154.892 14.8953C154.908 15.0821 154.784 15.4537 154.519 16.0102C154.268 16.5497 153.675 17.7466 152.739 19.6009C151.802 21.4395 151.074 22.8835 150.554 23.9328C147.523 29.9856 145.177 35.0845 143.516 39.2294C141.856 43.3743 141.062 45.8592 141.134 46.6842L141.15 46.8709C141.206 47.5091 141.467 47.8078 141.934 47.7669C142.401 47.7261 142.943 47.4591 143.558 46.9661C144.189 46.4717 144.732 45.9537 145.187 45.412C145.641 44.8703 146.094 44.3131 146.546 43.7403C147.012 43.1506 147.296 42.8042 147.396 42.7013C147.497 42.5984 147.633 42.5394 147.804 42.5244C148.069 42.5013 148.255 42.6575 148.363 42.9932C148.469 43.3132 148.549 43.7768 148.602 44.3838C148.654 44.9753 148.641 45.3686 148.564 45.5635C148.189 46.4747 147.286 47.6281 145.856 49.0237C144.439 50.4024 143.046 51.1517 141.676 51.2715C139.341 51.4758 138.088 50.5895 137.915 48.6127C137.807 47.383 138.133 45.7311 138.893 43.657C137.775 45.4017 136.613 46.9072 135.406 48.1734C133.163 50.5028 131.146 51.7458 129.356 51.9024C128.36 51.9895 127.59 51.704 127.046 51.0457C126.518 50.3862 126.197 49.4026 126.082 48.0951C125.966 46.772 126.342 45.1472 127.209 43.2206C128.075 41.294 129.207 39.5323 130.605 37.9357C132.016 36.3222 133.613 34.9434 135.395 33.7993C137.176 32.6397 138.852 31.9911 140.424 31.8536C140.922 31.81 141.533 32.0625 142.255 32.611C142.644 31.8555 143.351 30.3506 144.378 28.0963C147.629 21.3341 149.807 17.191 150.913 15.6669C151.492 14.7536 152.474 14.2364 153.859 14.1152ZM141.023 34.9303C138.825 35.6245 136.831 36.8499 135.039 38.6065C133.248 40.363 131.946 42.1552 131.134 43.9829C130.32 45.7951 129.935 46.9581 129.98 47.4717C130.025 47.9854 130.157 48.2327 130.375 48.2136C131.308 48.1319 133.437 45.8439 136.762 41.3496C138.418 39.1343 139.839 36.9945 141.023 34.9303ZM163.564 30.6526C164.747 30.5491 165.374 30.9021 165.445 31.7115C165.483 32.1473 165.41 32.4752 165.225 32.6953C165.04 32.9154 164.664 33.6306 164.095 34.841C163.541 36.0345 162.937 37.5616 162.284 39.4225C161.646 41.2664 161.265 42.829 161.142 44.1102C161.109 44.27 161.104 44.4899 161.129 44.7701C161.204 45.6262 161.475 46.0338 161.942 45.993C162.409 45.9521 162.942 45.6859 163.542 45.1942C164.141 44.687 164.668 44.1625 165.122 43.6208C165.575 43.0636 166.012 42.4999 166.433 41.9299C166.869 41.3584 167.13 41.0297 167.217 40.9437C167.304 40.8577 167.44 40.8065 167.627 40.7902C167.923 40.7643 168.122 40.9743 168.223 41.4203C168.325 41.8662 168.397 42.3305 168.439 42.813C168.482 43.2956 168.464 43.6343 168.387 43.8293C168.013 44.756 167.11 45.9094 165.678 47.2894C164.262 48.6681 162.923 49.4126 161.662 49.523C160.417 49.6319 159.465 49.3309 158.807 48.6199C158.149 47.909 157.78 47.0943 157.699 46.1759C157.618 45.242 157.702 44.4112 157.952 43.6835C156.807 45.4776 155.445 47.0319 153.866 48.3464C152.303 49.6595 150.992 50.3624 149.933 50.455C148.875 50.5476 147.983 50.3041 147.258 49.7245C146.332 49.0055 145.808 47.9456 145.686 46.5447C145.562 45.1282 145.749 43.6845 146.248 42.2136C146.761 40.7257 147.48 39.3532 148.405 38.0959C149.329 36.823 150.363 35.6502 151.509 34.5776C153.916 32.328 156.209 31.1079 158.388 30.9172C159.228 30.8437 159.925 30.9239 160.479 31.1578C161.033 31.3916 161.398 31.7126 161.575 32.1206C161.9 31.5276 162.18 31.1501 162.417 30.9882C162.668 30.8094 163.05 30.6975 163.564 30.6526ZM160.685 33.5159C158.024 33.7488 155.398 35.4686 152.808 38.6752C151.889 39.8222 151.066 41.1725 150.339 42.7261C149.628 44.2784 149.296 45.3269 149.344 45.8717C149.392 46.4165 149.571 46.6753 149.883 46.6481C150.318 46.6099 151.458 45.6476 153.3 43.7611C155.141 41.859 156.354 40.4747 156.937 39.6081C157.574 38.6426 158.823 36.6119 160.685 33.5159ZM193.038 10.6875C193.333 10.6616 193.575 10.7346 193.763 10.9064C193.95 11.0782 194.053 11.2653 194.071 11.4676C194.087 11.6544 193.963 12.0261 193.698 12.5825C193.447 13.1221 192.853 14.3189 191.918 16.1732C190.981 18.0118 190.252 19.4558 189.732 20.5051C186.701 26.558 184.356 31.6568 182.695 35.8017C181.034 39.9466 180.24 42.4315 180.312 43.2565L180.329 43.4433C180.384 44.0815 180.646 44.3801 181.113 44.3393C181.58 44.2984 182.121 44.0315 182.737 43.5384C183.368 43.044 183.911 42.526 184.365 41.9843C184.82 41.4427 185.273 40.8854 185.725 40.3126C186.191 39.7229 186.474 39.3766 186.575 39.2736C186.676 39.1707 186.812 39.1117 186.983 39.0968C187.247 39.0736 187.434 39.2299 187.541 39.5655C187.648 39.8856 187.728 40.3491 187.781 40.9562C187.832 41.5477 187.82 41.9409 187.743 42.1358C187.368 43.047 186.465 44.2004 185.034 45.596C183.618 46.9747 182.224 47.724 180.855 47.8438C178.52 48.0481 177.266 47.1618 177.093 45.185C176.985 43.9553 177.311 42.3035 178.071 40.2294C176.953 41.974 175.791 43.4795 174.584 44.7457C172.341 47.0751 170.325 48.3181 168.535 48.4747C167.538 48.5618 166.768 48.2763 166.225 47.6181C165.696 46.9585 165.375 45.9749 165.261 44.6674C165.145 43.3444 165.52 41.7195 166.387 39.7929C167.254 37.8663 168.386 36.1047 169.783 34.5081C171.195 32.8945 172.792 31.5157 174.574 30.3717C176.354 29.2121 178.031 28.5635 179.603 28.4259C180.101 28.3824 180.711 28.6348 181.434 29.1833C181.822 28.4278 182.53 26.9229 183.556 24.6687C186.807 17.9064 188.986 13.7633 190.091 12.2393C190.67 11.326 191.652 10.8087 193.038 10.6875ZM180.201 31.5027C178.004 32.1969 176.009 33.4222 174.218 35.1788C172.427 36.9353 171.125 38.7275 170.312 40.5553C169.498 42.3675 169.114 43.5304 169.159 44.0441C169.204 44.5577 169.335 44.805 169.553 44.786C170.487 44.7043 172.616 42.4162 175.94 37.9219C177.597 35.7066 179.017 33.5668 180.201 31.5027ZM202.742 27.2249C203.925 27.1214 204.552 27.4744 204.623 28.2838C204.661 28.7196 204.588 29.0476 204.403 29.2676C204.219 29.4877 203.842 30.2029 203.274 31.4133C202.719 32.6068 202.116 34.134 201.463 35.9948C200.824 37.8387 200.443 39.4013 200.32 40.6826C200.287 40.8423 200.283 41.0623 200.307 41.3424C200.382 42.1985 200.653 42.6062 201.12 42.5653C201.587 42.5245 202.121 42.2582 202.721 41.7665C203.319 41.2593 203.846 40.7348 204.301 40.1932C204.754 39.6359 205.191 39.0723 205.611 38.5022C206.048 37.9307 206.309 37.602 206.396 37.516C206.482 37.43 206.619 37.3788 206.806 37.3625C207.101 37.3366 207.3 37.5467 207.402 37.9926C207.504 38.4386 207.576 38.9028 207.618 39.3854C207.66 39.8679 207.643 40.2066 207.566 40.4016C207.192 41.3283 206.289 42.4817 204.857 43.8618C203.44 45.2405 202.102 45.985 200.841 46.0953C199.596 46.2042 198.644 45.9032 197.986 45.1923C197.327 44.4813 196.958 43.6666 196.878 42.7483C196.796 41.8143 196.88 40.9835 197.13 40.2558C195.985 42.0499 194.624 43.6042 193.045 44.9187C191.481 46.2319 190.17 46.9347 189.112 47.0273C188.053 47.1199 187.162 46.8764 186.436 46.2968C185.511 45.5778 184.987 44.5179 184.864 43.117C184.74 41.7006 184.928 40.2569 185.426 38.7859C185.939 37.2981 186.658 35.9255 187.584 34.6682C188.507 33.3953 189.542 32.2226 190.687 31.1499C193.094 28.9003 195.387 27.6802 197.566 27.4896C198.407 27.416 199.104 27.4962 199.658 27.7301C200.211 27.964 200.577 28.2849 200.753 28.6929C201.078 28.0999 201.359 27.7224 201.596 27.5605C201.846 27.3817 202.229 27.2699 202.742 27.2249ZM199.864 30.0883C197.202 30.3211 194.576 32.0409 191.987 35.2476C191.068 36.3945 190.245 37.7448 189.518 39.2985C188.807 40.8507 188.475 41.8993 188.523 42.4441C188.57 42.9888 188.75 43.2476 189.061 43.2204C189.497 43.1823 190.636 42.2199 192.479 40.3334C194.32 38.4313 195.532 37.047 196.115 36.1804C196.752 35.2149 198.002 33.1842 199.864 30.0883ZM200.323 18.661C200.632 18.9634 200.978 19.2468 201.362 19.5112C201.744 19.7601 202.2 19.8614 202.729 19.8151C203.274 19.7674 203.793 19.5966 204.284 19.3026C204.792 19.0072 205.142 18.7021 205.334 18.3873C205.888 17.5546 206.344 17.1225 206.702 17.0912C207.06 17.0599 207.35 17.2306 207.571 17.6034C207.79 17.9607 207.917 18.3339 207.951 18.723C207.985 19.1121 207.958 19.436 207.871 19.6946C207.433 20.7838 206.736 21.6839 205.778 22.3951C204.821 23.1062 203.868 23.5033 202.918 23.5864C201.969 23.6695 201.185 23.589 200.568 23.345C199.966 23.0996 199.495 22.8194 199.153 22.5042C198.216 21.6451 197.513 21.236 197.046 21.2769C196.595 21.3164 196.191 21.4536 195.835 21.6887C195.478 21.9081 195.172 22.178 194.918 22.4983C194.678 22.8016 194.438 23.1049 194.198 23.4083C193.618 24.1334 193.048 24.5205 192.488 24.5695C192.363 24.5804 192.238 24.4972 192.113 24.32C191.988 24.1427 191.913 23.9218 191.89 23.6572C191.809 22.7233 192.11 21.7715 192.793 20.802C193.477 19.8325 194.248 19.0592 195.108 18.4821C195.967 17.905 196.692 17.5906 197.284 17.5388C197.891 17.4857 198.472 17.5839 199.027 17.8333C199.581 18.0672 200.013 18.3431 200.323 18.661ZM227.32 18.793C227.553 18.7725 227.682 18.8946 227.705 19.1592C227.713 19.2526 227.682 19.3417 227.611 19.4263C226.417 20.8482 224.965 21.634 223.253 21.7838C222.848 21.8192 222.377 21.633 221.839 21.2252C221.3 20.8018 220.993 20.1543 220.916 19.2826C220.84 18.411 221.285 17.3996 222.251 16.2485C223.215 15.0819 224.598 13.9415 226.398 12.8272C228.213 11.696 230.504 10.6329 233.271 9.63788C236.039 8.64288 238.551 8.04665 240.808 7.84919C243.065 7.65173 244.934 7.67646 246.414 7.92338C247.893 8.15474 249.061 8.50741 249.918 8.98139C250.789 9.43844 251.519 9.97848 252.107 10.6015C253.092 11.6446 253.636 12.7498 253.738 13.9173C253.838 15.0691 253.569 16.2926 252.929 17.5876C252.29 18.8827 251.413 20.0651 250.299 21.1351C249.199 22.1881 247.915 23.1944 246.446 24.1542C243.7 25.9316 240.716 27.322 237.494 28.3253C238.105 28.8522 239.414 30.1963 241.423 32.3576C243.446 34.502 245.272 36.2871 246.903 37.7129C248.549 39.1373 249.784 39.8135 250.609 39.7413L251.355 39.3937C251.526 39.3787 251.618 39.4413 251.63 39.5814C251.641 39.7059 251.387 40.1125 250.867 40.801C250.361 41.4727 249.912 41.9903 249.52 42.354C249.129 42.7176 248.567 42.9314 247.835 42.9955C247.119 43.0581 246.272 42.7794 245.292 42.1593C244.312 41.5392 243.222 40.6386 242.021 39.4575C240.819 38.2765 239.734 37.1637 238.764 36.1193C237.793 35.0593 236.68 33.8156 235.426 32.3882C234.171 30.9452 233.309 29.9698 232.841 29.4617C232.707 29.7244 232.365 30.3818 231.814 31.4338C231.261 32.4702 230.858 33.2349 230.603 33.7277C230.348 34.2206 229.98 34.9429 229.498 35.8947C229.016 36.831 228.642 37.5851 228.379 38.1572C227.649 39.6797 227.145 40.8139 226.865 41.5599C226.601 42.3045 226.087 42.7102 225.324 42.7769L224.505 42.825L223.807 42.9097C222.842 42.9941 222.324 42.6316 222.253 41.8222C222.2 41.2151 222.381 40.3288 222.797 39.1631C223.227 37.9805 225.629 33.5277 230.004 25.8045C234.377 18.0657 236.8 13.9326 237.271 13.4052C237.741 12.8621 238.098 12.5486 238.342 12.4645C238.516 12.3081 238.634 12.2272 238.697 12.2217L239.123 12.255L239.514 12.1502C239.654 12.138 239.784 12.1893 239.904 12.3043C240.022 12.4038 240.106 12.467 240.156 12.494C240.852 12.9194 241.214 13.2955 241.243 13.6224C241.271 13.9492 241.213 14.2758 241.069 14.6021C240.94 14.9115 240.555 15.6274 239.916 16.7498C239.277 17.8723 238.433 19.3343 237.383 21.1358C236.347 22.9204 235.598 24.2172 235.135 25.0262C236.406 24.8522 237.905 24.329 239.633 23.4563C241.36 22.5837 242.958 21.5812 244.428 20.4488C245.911 19.2995 247.155 18.0928 248.158 16.8287C249.175 15.5477 249.645 14.4714 249.569 13.5997C249.528 13.1327 249.25 12.7336 248.735 12.4022C248.218 12.0553 247.585 11.8049 246.834 11.6509C245.333 11.3431 243.664 11.2696 241.827 11.4302C239.99 11.5909 237.698 12.1915 234.95 13.2318C232.202 14.2721 230.214 15.2146 228.986 16.0592C227.757 16.8882 226.877 17.5848 226.346 18.1488C225.814 18.6973 225.556 19.0727 225.574 19.2751C225.584 19.384 225.744 19.4249 226.055 19.3977C226.382 19.3691 226.663 19.2661 226.899 19.0886C227.133 18.8956 227.273 18.7971 227.32 18.793ZM265.504 22.0163C265.594 23.0437 265.253 23.9832 264.48 24.835C263.723 25.6855 262.816 26.157 261.757 26.2496C261.415 26.2796 261.182 26.2215 261.06 26.0754C260.936 25.9137 260.862 25.7005 260.839 25.4359C260.816 25.1713 260.824 24.9118 260.865 24.6573C260.321 24.8931 259.723 25.2355 259.073 25.6846C258.422 26.1336 257.632 26.7831 256.702 27.633C255.773 28.4828 255.324 29.0945 255.357 29.4681C255.368 29.5926 255.552 29.6392 255.91 29.6079C256.284 29.5752 256.841 29.401 257.582 29.0852C258.322 28.7539 258.839 28.5753 259.135 28.5494C259.446 28.5222 259.65 28.52 259.746 28.543C259.958 28.6342 260.197 28.8564 260.463 29.2096C260.728 29.5472 260.87 29.8249 260.889 30.0428C260.907 30.2452 260.728 30.5353 260.353 30.9131C259.979 31.291 259.543 31.5958 259.045 31.8275C258.547 32.0437 258.216 32.2059 258.053 32.3143C254.929 34.4384 253.397 35.8429 253.457 36.5277C253.563 37.7419 254.652 38.2584 256.722 38.0772C258.045 37.9615 259.339 37.4248 260.604 36.4671C261.678 35.6517 262.634 34.8387 263.473 34.0281C264.326 33.2006 264.862 32.6911 265.08 32.4994C265.314 32.3064 265.493 32.2045 265.618 32.1936C266.023 32.1582 266.264 32.5919 266.343 33.4947C266.422 34.3975 266.42 35.0015 266.337 35.3068C266.253 35.5965 265.972 35.9739 265.495 36.4392C262.401 39.439 259.368 41.069 256.395 41.3291C254.807 41.468 253.519 41.361 252.532 41.0083C250.719 40.367 249.741 39.2291 249.598 37.5947C249.41 35.4467 250.754 33.69 253.631 32.3248C253.016 32.1119 252.605 31.8106 252.399 31.4209C252.191 31.0156 252.047 30.3615 251.968 29.4587C251.888 28.5404 252.224 27.5385 252.976 26.4532C253.742 25.351 254.711 24.4192 255.884 23.6579C258.494 21.9395 260.873 20.9863 263.021 20.7984C263.535 20.7535 264.067 20.8324 264.618 21.0351C265.169 21.2379 265.464 21.5649 265.504 22.0163ZM280.868 33.0474C281.632 32.4629 282.123 32.0671 282.34 31.8599C282.556 31.6371 282.808 31.3798 283.096 31.0879C283.384 30.7961 283.629 30.6413 283.832 30.6236C284.143 30.5964 284.33 30.9407 284.393 31.6568C284.454 32.3572 284.17 33.1506 283.542 34.0368C282.928 34.9061 282.133 35.6737 281.156 36.3395C280.177 36.9898 279.123 37.5761 277.992 38.0985C275.748 39.1575 273.808 39.7585 272.174 39.9015C270.555 40.0431 269.046 39.6419 267.646 38.6978C266.244 37.7382 265.469 36.4023 265.319 34.6901C265.168 32.9623 265.445 31.2049 266.151 29.4177C266.856 27.6151 267.822 26.0092 269.047 24.6002C270.287 23.1742 271.759 21.9789 273.462 21.0142C275.182 20.0482 276.913 19.4889 278.656 19.3364C279.497 19.2629 280.273 19.4381 280.984 19.862C281.696 20.286 282.089 20.9183 282.162 21.7588C282.236 22.5994 281.904 23.6479 281.167 24.9044C280.444 26.144 279.654 26.8012 278.798 26.8761C277.802 26.9633 277.263 26.5321 277.179 25.5826C277.158 25.3336 277.352 24.8695 277.764 24.1905C278.175 23.5114 278.371 23.063 278.352 22.8451C278.331 22.6116 278.235 22.5023 278.064 22.5173C277.208 22.5922 276.316 22.9683 275.387 23.6456C274.458 24.3229 273.617 25.0238 272.865 25.7483C272.128 26.4716 271.437 27.2692 270.792 28.1412C269.39 30.0363 268.771 31.9334 268.937 33.8324C269.004 34.5951 269.303 35.2355 269.835 35.7536C270.381 36.2549 271.229 36.4551 272.381 36.3543C273.549 36.2522 274.705 36.0177 275.849 35.651C276.992 35.2687 277.923 34.8892 278.643 34.5125C279.377 34.1189 280.119 33.6305 280.868 33.0474ZM296.566 11.0643C296.644 11.9515 296.309 12.8826 295.563 13.8576C294.816 14.817 293.991 15.3362 293.088 15.4152C292.201 15.4928 291.717 15.0647 291.635 14.1307C291.553 13.1968 291.865 12.2755 292.569 11.3669C293.288 10.4413 294.123 9.93703 295.072 9.85396C295.492 9.81719 295.837 9.90465 296.107 10.1163C296.376 10.328 296.529 10.644 296.566 11.0643ZM294.567 31.7783C294.608 32.2453 294.59 32.584 294.515 32.7945C293.888 34.4178 292.784 35.7848 291.203 36.8956C289.621 37.9908 288.215 38.5922 286.985 38.6998C285.755 38.8074 284.661 38.4875 283.701 37.7402C282.742 36.9928 282.225 36.1911 282.15 35.335C282.075 34.4789 282.394 33.1962 283.107 31.4869C283.82 29.7776 284.544 28.1929 285.279 26.7326C286.014 25.2724 286.377 24.4878 286.367 24.3788C286.356 24.2543 286.173 24.0351 285.816 23.7213C285.474 23.4061 285.297 23.1706 285.283 23.015C285.268 22.8438 285.55 22.3878 286.128 21.6471C286.721 20.8894 287.447 20.1358 288.307 19.3861C289.181 18.6195 289.859 18.2151 290.342 18.1729C290.84 18.1293 291.302 18.3084 291.73 18.7102C292.157 19.112 292.386 19.4919 292.418 19.8499C292.449 20.2079 290.891 23.7399 287.745 30.4459C287.707 30.5434 287.593 30.7651 287.403 31.111C287.228 31.44 287.088 31.719 286.982 31.9478C286.891 32.1597 286.781 32.4203 286.651 32.7296C286.394 33.3795 286.284 33.9146 286.321 34.3348C286.367 34.8641 286.748 35.0974 287.464 35.0347C288.18 34.9721 288.899 34.6661 289.619 34.1169C290.354 33.5507 290.975 32.9473 291.484 32.3068C292.81 30.6067 293.574 29.7478 293.776 29.7301C294.181 29.6946 294.444 30.3774 294.567 31.7783ZM291.357 29.777L291.113 29.1396C291.102 29.0151 291.155 28.9085 291.273 28.8197C291.389 28.7154 291.529 28.5228 291.693 28.2419C291.872 27.9595 291.997 27.7761 292.068 27.6914C292.155 27.6054 292.27 27.4856 292.413 27.3319C292.571 27.1612 292.7 27.0245 292.801 26.9215C293.089 26.6297 293.294 26.4627 293.416 26.4207C293.536 26.3631 293.748 26.274 294.051 26.1534C294.989 25.7576 295.787 25.4682 296.446 25.2852C299.835 18.307 302.564 12.8452 304.635 8.89971C306.719 4.93733 307.908 2.74727 308.201 2.32954C308.508 1.89487 309.076 1.48444 309.904 1.09822C310.733 0.712014 311.343 0.509669 311.733 0.49119C312.138 0.455783 312.356 0.6093 312.385 0.951742C312.398 1.09183 312.36 1.28338 312.271 1.5264C312.198 1.76805 311.47 3.21982 310.088 5.88171C304.97 15.6932 301.699 22.0493 300.275 24.9501L300.877 25.1092C304.429 24.124 306.276 23.6252 306.416 23.6129C306.572 23.5993 306.955 23.6756 307.565 23.8418C308.19 23.991 308.597 24.073 308.787 24.0878C309.15 24.1188 309.355 24.3988 309.401 24.9281C309.446 25.4417 309.308 25.744 308.987 25.8349C308.726 25.9047 308.101 26.1162 307.113 26.4693C306.138 26.8055 305.354 27.0702 304.759 27.2634C305.67 28.1719 306.174 29.1787 306.27 30.2838C306.367 31.389 306.005 32.8951 305.183 34.802C304.361 36.6934 303.264 38.5931 301.894 40.501C300.524 42.4089 299.067 44.2225 297.523 45.9417C295.996 47.6595 294.503 49.0684 293.047 50.1683C291.592 51.2837 290.498 51.8734 289.767 51.9374C289.019 52.0028 288.34 51.8583 287.729 51.504C287.103 51.1666 286.756 50.6088 286.688 49.8305C286.62 49.0522 286.704 48.1274 286.94 47.0559C287.161 46.0013 287.421 45.0218 287.718 44.1175C288.016 43.2287 288.546 41.9354 289.308 40.2376C290.12 38.4098 291.603 35.2765 293.755 30.8376C293.326 30.9536 292.995 31.0218 292.761 31.0422C292.528 31.0626 292.305 31.0272 292.093 30.936C291.882 30.8447 291.729 30.7169 291.636 30.5525C291.469 30.2534 291.376 29.9949 291.357 29.777ZM298.798 39.2661C299.847 37.8098 300.704 36.3075 301.368 34.7594C302.031 33.1956 302.322 31.9468 302.24 31.0128C302.157 30.0633 301.625 29.2708 300.644 28.6351L298.104 29.4455C297.877 29.9045 297.525 30.6333 297.048 31.6318C296.585 32.6134 296.2 33.4156 295.894 34.0384C295.603 34.6599 295.226 35.4614 294.763 36.443C294.3 37.4246 293.91 38.2508 293.592 38.9217C293.29 39.5912 292.948 40.3426 292.566 41.176C292.201 42.0235 291.903 42.7397 291.672 43.3246C291.426 43.9264 291.196 44.519 290.98 45.1025C290.562 46.2371 290.367 46.9678 290.396 47.2946C290.424 47.6215 290.524 47.7775 290.695 47.7625C291.007 47.7353 291.621 47.3207 292.539 46.5189C293.443 45.734 294.45 44.6892 295.559 43.3844C296.685 42.0939 297.765 40.7211 298.798 39.2661ZM325.089 16.8033C325.179 17.8307 324.837 18.7702 324.065 19.622C323.308 20.4725 322.4 20.944 321.342 21.0366C321 21.0666 320.767 21.0085 320.644 20.8624C320.52 20.7007 320.447 20.4875 320.424 20.2229C320.401 19.9583 320.409 19.6988 320.45 19.4443C319.906 19.6801 319.308 20.0225 318.657 20.4716C318.007 20.9206 317.216 21.5701 316.287 22.42C315.358 23.2698 314.909 23.8815 314.942 24.2551C314.953 24.3796 315.137 24.4262 315.495 24.3949C315.869 24.3622 316.426 24.188 317.167 23.8722C317.907 23.5409 318.424 23.3623 318.72 23.3364C319.031 23.3092 319.235 23.307 319.331 23.33C319.543 23.4212 319.782 23.6434 320.048 23.9966C320.313 24.3342 320.455 24.6119 320.474 24.8298C320.492 25.0322 320.313 25.3223 319.938 25.7001C319.564 26.078 319.128 26.3828 318.63 26.6145C318.132 26.8307 317.801 26.9929 317.638 27.1013C314.514 29.2254 312.982 30.6299 313.042 31.3147C313.148 32.5289 314.237 33.0454 316.307 32.8642C317.63 32.7485 318.924 32.2118 320.189 31.2541C321.263 30.4387 322.219 29.6257 323.058 28.8151C323.911 27.9876 324.446 27.4781 324.665 27.2864C324.899 27.0934 325.078 26.9915 325.203 26.9806C325.608 26.9452 325.849 27.3789 325.928 28.2817C326.007 29.1845 326.005 29.7885 325.922 30.0938C325.838 30.3835 325.557 30.7609 325.08 31.2262C321.986 34.226 318.953 35.856 315.98 36.1161C314.392 36.255 313.104 36.148 312.117 35.7953C310.304 35.1539 309.326 34.0161 309.183 32.3817C308.995 30.2337 310.339 28.477 313.216 27.1118C312.601 26.8989 312.19 26.5976 311.984 26.2079C311.776 25.8026 311.632 25.1485 311.553 24.2457C311.473 23.3274 311.809 22.3255 312.561 21.2402C313.327 20.138 314.296 19.2062 315.469 18.4449C318.079 16.7265 320.458 15.7733 322.606 15.5854C323.12 15.5405 323.652 15.6194 324.203 15.8221C324.754 16.0249 325.049 16.3519 325.089 16.8033ZM358.579 5.63885C358.657 6.52608 358.323 7.45719 357.577 8.43217C356.829 9.39158 356.004 9.91078 355.101 9.98976C354.214 10.0674 353.73 9.63923 353.648 8.7053C353.566 7.77137 353.878 6.85008 354.583 5.94145C355.301 5.0159 356.136 4.51158 357.085 4.42851C357.505 4.39174 357.85 4.47921 358.12 4.6909C358.389 4.9026 358.542 5.21858 358.579 5.63885ZM356.58 26.3528C356.621 26.8198 356.603 27.1586 356.528 27.3691C355.901 28.9924 354.797 30.3594 353.216 31.4702C351.634 32.5654 350.228 33.1668 348.998 33.2744C347.768 33.3819 346.674 33.0621 345.715 32.3147C344.755 31.5674 344.238 30.7656 344.163 29.9095C344.088 29.0534 344.407 27.7707 345.12 26.0614C345.833 24.3522 346.558 22.7674 347.292 21.3072C348.027 19.8469 348.39 19.0623 348.38 18.9534C348.37 18.8289 348.186 18.6097 347.829 18.2958C347.488 17.9806 347.31 17.7452 347.297 17.5895C347.282 17.4183 347.563 16.9624 348.141 16.2216C348.734 15.464 349.46 14.7103 350.32 13.9607C351.194 13.1941 351.872 12.7897 352.355 12.7475C352.853 12.7039 353.315 12.883 353.743 13.2848C354.17 13.6866 354.399 14.0665 354.431 14.4245C354.462 14.7825 352.904 18.3145 349.758 25.0205C349.72 25.1179 349.606 25.3396 349.416 25.6856C349.241 26.0146 349.101 26.2935 348.996 26.5223C348.904 26.7342 348.794 26.9948 348.664 27.3042C348.407 27.9541 348.297 28.4891 348.334 28.9094C348.38 29.4386 348.761 29.6719 349.477 29.6093C350.193 29.5466 350.912 29.2407 351.632 28.6914C352.367 28.1252 352.989 27.5219 353.497 26.8814C354.823 25.1812 355.587 24.3223 355.789 24.3046C356.194 24.2692 356.457 24.9519 356.58 26.3528ZM367.208 27.0934C367.268 27.7783 367.765 28.0799 368.699 27.9982C369.197 27.9546 369.798 27.6511 370.502 27.0876C371.221 26.5228 371.858 25.9181 372.413 25.2735C373.892 23.5286 374.74 22.6466 374.958 22.6275C375.363 22.5921 375.616 23.1581 375.718 24.3256C375.82 25.493 375.525 26.3266 374.831 26.8264C372.781 29.0291 371.168 30.4015 369.992 30.9436C369.328 31.237 368.582 31.412 367.756 31.4686C366.93 31.5252 366.081 31.2387 365.21 30.609C364.34 29.9794 363.861 29.1665 363.774 28.1703C363.685 27.1585 363.85 25.9913 364.267 24.6686C364.685 23.346 365.126 22.2094 365.592 21.2589C366.072 20.2915 366.665 19.1732 367.369 17.9038C368.072 16.6189 368.434 15.8265 368.455 15.5267L368.404 15.4841C367.895 15.5757 366.707 16.6991 364.841 18.8543C362.99 21.0082 361.467 22.8746 360.272 24.4535C359.077 26.0324 357.668 28.1241 356.045 30.7286C355.59 31.4429 355.199 31.8143 354.872 31.8429C354.545 31.8715 354.101 31.8084 353.538 31.6537C352.959 31.4849 352.603 31.3592 352.47 31.2767C352.337 31.1942 352.263 31.0595 352.247 30.8727C352.23 30.6859 352.265 30.4555 352.351 30.1813C352.435 29.8916 352.524 29.6564 352.618 29.4756C352.695 29.2807 352.834 28.9862 353.035 28.5922C353.236 28.1982 353.626 27.372 354.206 26.1135C354.801 24.8381 355.709 22.9392 356.931 20.4168C358.153 17.8945 358.883 16.372 359.12 15.8494C359.621 14.7703 360.038 13.9809 360.371 13.4813C360.994 12.5327 362.138 11.9856 363.804 11.8399C364.177 11.8072 364.384 12.0244 364.425 12.4913C364.489 13.2229 363.933 14.6597 362.755 16.8017L361.904 18.3585C364.335 15.1343 366.442 13.0442 368.225 12.0883C369.094 11.6202 369.886 11.3548 370.602 11.2922C371.334 11.2282 371.927 11.3724 372.381 11.7247C372.851 12.0757 373.107 12.4925 373.149 12.975C373.19 13.442 373.076 14.0245 372.808 14.7224C372.538 15.4047 372.255 16.0255 371.959 16.5847C371.677 17.1269 371.298 17.8188 370.823 18.6603C370.348 19.5018 370.09 19.9635 370.05 20.0455C370.009 20.1118 369.901 20.3095 369.726 20.6385C369.565 20.9506 369.444 21.1808 369.363 21.329C369.282 21.4773 369.148 21.7399 368.961 22.117C368.773 22.4785 368.619 22.7822 368.5 23.0279C368.396 23.2723 368.257 23.5745 368.085 23.9347C367.928 24.2935 367.798 24.6028 367.696 24.8628C367.608 25.1213 367.515 25.404 367.417 25.7106C367.247 26.2745 367.177 26.7354 367.208 27.0934Z" fill="url(#paint0_linear)"/>
<defs>
<linearGradient id="paint0_linear" x1="191.813" y1="-2.12168" x2="197.304" y2="60.6386" gradientUnits="userSpaceOnUse">
<stop stop-color="white"/>
<stop offset="1" stop-color="white" stop-opacity="0"/>
</linearGradient>
</defs>
</svg>
